<?xml version="1.0" ?><!DOCTYPE svg  PUBLIC '-//W3C//DTD SVG 1.1//EN'  'http://www.w3.org/Graphics/SVG/1.1/DTD/svg11.dtd'><svg height="512px" style="enable-background:new 0 0 512 512;" version="1.1" viewBox="0 0 512 512" width="512px" xml:space="preserve" xmlns="http://www.w3.org/2000/svg" xmlns:xlink="http://www.w3.org/1999/xlink"><g id="_x31_43"><g><g><g><g><g><g><g><path d="M255.041,346.131c0.257,0.072,0.165-0.692,0.203-0.828          C254.819,345.46,255.05,346.328,255.041,346.131z" style="fill:#202020;"/><polygon points="250.705,347.71 250.8,347.405 250.113,348.117         " style="fill:#202020;"/><path d="M246.672,347.328c0.234,1.345,1.482-0.017,2.155,0.478l0.094,0.304l0.412-1.018          c-0.441,0.05-0.96,0.227-1.446,0.34C247.405,347.522,246.958,347.547,246.672,347.328z" style="fill:#202020;"/><path d="M244.943,344.276c0.052,0.517-0.511,0.375,0.458,0.218c-0.039-0.061-0.048-0.094-0.069-0.138          C245.248,344.354,245.133,344.338,244.943,344.276z" style="fill:#202020;"/><path d="M245.332,344.356C245.744,344.372,245.126,343.902,245.332,344.356L245.332,344.356z" style="fill:#202020;"/><path d="M243.414,344.342l0.606-0.35c-0.063-0.314-0.521-0.465-0.311-0.647          C243.129,343.491,243.186,343.803,243.414,344.342z" style="fill:#202020;"/><path d="M242.741,345.185l0.313-0.138C243.027,344.915,242.961,344.859,242.741,345.185z" style="fill:#202020;"/><path d="M243.713,344.755l-0.659,0.292c0.042,0.221-0.02,0.637,0.296-0.095          C243.238,345.322,243.418,344.979,243.713,344.755z" style="fill:#202020;"/><path d="M244.016,345.011c0.256,0.333,0.625,0.58,0.01,0.926          C245.101,345.92,245.07,345.007,244.016,345.011z" style="fill:#202020;"/><path d="M246.306,348.636l0.382,0.433l0.417-0.386C246.896,348.873,246.327,348.229,246.306,348.636z          " style="fill:#202020;"/><path d="M240.245,343.037c-0.093,0.262,0.018,0.76-0.018,1.115l0.458-0.22          C240.524,343.701,240.182,343.443,240.245,343.037z" style="fill:#202020;"/><path d="M240.228,344.152l-0.692,0.327C240.052,344.655,240.196,344.458,240.228,344.152z" style="fill:#202020;"/><polygon points="242.389,346.588 243.555,345.783 242.194,346.566         " style="fill:#202020;"/><polygon points="238.045,342.495 238.528,341.95 237.709,342.742         " style="fill:#202020;"/><path d="M236.569,342.194c0.38-0.443-0.083-0.956,0.255-1.199c-0.411-0.019-0.868,0.325-1.287,0.632          C235.923,341.499,236.244,341.65,236.569,342.194z" style="fill:#202020;"/><path d="M234.857,342.055c0.198-0.076,0.431-0.247,0.681-0.428          C235.333,341.696,235.115,341.817,234.857,342.055z" style="fill:#202020;"/><path d="M238.56,344.114c-0.006-0.173,0.009-0.619-0.273-0.873l0.043,0.808          C238.4,344.068,238.479,344.091,238.56,344.114z" style="fill:#202020;"/><path d="M238.333,344.075l-0.002-0.026c-0.247-0.078-0.417-0.133-0.491-0.156          C237.901,343.915,238.05,343.971,238.333,344.075z" style="fill:#202020;"/><path d="M238.618,344.131c-0.021-0.006-0.037-0.011-0.058-0.017          C238.564,344.193,238.572,344.222,238.618,344.131z" style="fill:#202020;"/><path d="M240.929,345.613c-0.437,0.354-1.28,0.63-0.695,1.448          C240.598,346.598,240.266,346.14,240.929,345.613z" style="fill:#202020;"/><path d="M238.682,345.143l0.596,0.32c0.033-0.203-0.014-0.521,0.207-0.691L238.682,345.143z" style="fill:#202020;"/><polygon points="238.313,345.311 238.682,345.143 238.461,345.024         " style="fill:#202020;"/><path d="M235.7,343.049c-0.36,0.25-0.663,0.194-1.009,0.153c0.31,0.246,0.656,0.429,1.005,0.527          C235.813,343.508,236.085,343.13,235.7,343.049z" style="fill:#202020;"/><path d="M236.954,343.63c-0.022,0.009-0.05,0.019-0.071,0.026          C236.903,343.73,236.927,343.759,236.954,343.63z" style="fill:#202020;"/><path d="M231.478,342.133c0.001,0.051,0.002,0.098,0.004,0.15c0.02-0.042,0.037-0.079,0.057-0.122          L231.478,342.133z" style="fill:#202020;"/><path d="M235.717,343.886c0.227,0.22,0.439,0.083,0.655-0.105c-0.221,0.019-0.446,0.008-0.676-0.051          C235.644,343.829,235.62,343.898,235.717,343.886z" style="fill:#202020;"/><path d="M233.861,342.116c0.085,0.2,0.198,0.384,0.322,0.561          C234.123,342.396,233.971,341.939,233.861,342.116z" style="fill:#202020;"/><path d="M236.85,343.423c0.017-0.008,0.032-0.019,0.049-0.021          C236.855,343.215,236.845,343.297,236.85,343.423z" style="fill:#202020;"/><path d="M236.85,343.423c-0.166,0.07-0.324,0.224-0.478,0.357c0.179-0.013,0.351-0.051,0.511-0.124          C236.865,343.594,236.854,343.504,236.85,343.423z" style="fill:#202020;"/><path d="M228.765,346.458c0.303-0.646,1.245-1.004,1.622-0.072c0.802-0.299,1.157-2.683,1.095-4.103          c-0.124,0.289-0.22,0.567-0.978,0.755c0.073,0.446,1.061,1.332,0.319,1.771c-0.955,0.066-0.598-0.462-0.858-0.977          c0.028,0.977-1.497,0.814-1.797,2.115l0.897-0.146C229.008,346,228.626,346.202,228.765,346.458z" style="fill:#202020;"/><path d="M232.61,342.742h0.277c-0.244-0.216-0.355-0.558-0.54-1.215          c-0.524,0.194-0.701,0.417-0.809,0.634l1.191,0.508L232.61,342.742z" style="fill:#202020;"/><path d="M234.004,343.118c-0.427,0.683-1.141,0.793-1.027,1.728c0.767,0.201,0.721-0.44,1.271-0.639          c-1.262-0.18,0.469-0.302-0.261-1.001c0.27-0.043,0.496-0.033,0.704-0.004c-0.187-0.155-0.362-0.317-0.508-0.525          c0.005,0.021,0.008,0.037,0.012,0.055h0.006l-0.005,0.012c0.021,0.11,0.02,0.173-0.02,0.099          c-0.007,0.009-0.022,0.008-0.029,0.008c-0.041,0.102-0.091,0.185-0.142,0.264c-0.292-0.27,0.008-0.213,0.142-0.264          c0.016-0.035,0.036-0.067,0.049-0.106l-0.001-0.012l-1.308,0.011C233.103,342.931,233.423,343.015,234.004,343.118z" style="fill:#202020;"/><path d="M239.205,348.555c-0.025-0.077-0.011-0.132-0.002-0.188          C239.1,348.441,239.054,348.499,239.205,348.555z" style="fill:#202020;"/><path d="M238.782,347.971c0.117-0.085,0.263-0.374,0.544-0.226c0.21,0.29-0.082,0.367-0.124,0.622          c0.229-0.161,0.752-0.404,0.268-0.907l-0.112,0.084c-0.454-0.382-0.877-1.483-0.763-1.567          C238.58,346.697,238.595,347.217,238.782,347.971z" style="fill:#202020;"/><path d="M236.223,345.765l-1.131,0.078l0.343,0.804l0.083-0.401          C236.064,346.567,236.068,346.047,236.223,345.765z" style="fill:#202020;"/><polygon points="231.497,341.728 231.905,340.991 230.946,341.9         " style="fill:#202020;"/><polygon points="230.21,341.349 230.512,340.693 230.03,340.971         " style="fill:#202020;"/><path d="M314.478,222.968l0.911,0.74C314.982,223.335,314.7,223.115,314.478,222.968z" style="fill:#202020;"/><path d="M308.639,216.972l-0.391,0.125C308.667,217.211,308.875,217.221,308.639,216.972z" style="fill:#202020;"/><path d="M189.293,250.91c1.186-1.161,2.734-2.274,1.933-2.422l-0.898,0.116          C190.077,249.628,189.703,250.335,189.293,250.91z" style="fill:#202020;"/><path d="M245.729,201.114c-0.161-0.058-0.329-0.119-0.495-0.179c-0.346,0.317-0.67,0.615-0.963,0.883          C244.71,201.606,245.208,201.366,245.729,201.114z" style="fill:#202020;"/><path d="M246.485,197.725c0,0,0.557,0.041,1.116,0.133c0.556,0.085,1.112,0.17,1.112,0.17          C248.21,197.9,247.489,197.743,246.485,197.725z" style="fill:#202020;"/><path d="M334.455,263.677l0.97,1.247C335.147,262.786,334.866,263.788,334.455,263.677z" style="fill:#202020;"/><path d="M195.609,313.438c-0.458-1.244-0.843-2.202-1.256-3.003          C194.708,312.015,194.826,313.446,195.609,313.438z" style="fill:#202020;"/><path d="M306.209,226.379c0.54,0.359,0.845,0.445,0.96,0.312          C306.618,226.309,306.255,226.146,306.209,226.379z" style="fill:#202020;"/><path d="M192.589,307.168c0.033,0.237,0.099,0.454,0.145,0.69c0.273,0.389,0.541,0.781,0.8,1.207          c0.281,0.414,0.555,0.86,0.819,1.37c-0.134-0.582-0.334-1.17-0.605-1.734C193.486,308.133,193.121,307.604,192.589,307.168z          " style="fill:#202020;"/><path d="M273.538,352.931c-0.043-0.026-0.089-0.033-0.13-0.067          C273.423,352.971,273.472,352.965,273.538,352.931z" style="fill:#202020;"/><path d="M258.987,347.006c0.124-0.059,0.33-0.075,0.523-0.101          C259.413,346.858,259.255,346.876,258.987,347.006z" style="fill:#202020;"/><path d="M215.485,333.209C216.295,333.723,215.659,333.225,215.485,333.209L215.485,333.209z" style="fill:#202020;"/><path d="M217.797,338.413c-0.23-0.03-0.429-0.014-0.545,0.13          C217.422,338.421,217.606,338.388,217.797,338.413z" style="fill:#202020;"/><path d="M184.232,299.962c-0.009-0.029-0.016-0.052-0.026-0.085          C184.158,300.217,184.169,300.157,184.232,299.962z" style="fill:#202020;"/><path d="M216.48,334.316c-0.253-0.272-0.558-0.563-0.889-0.88          C215.718,333.604,215.974,333.89,216.48,334.316z" style="fill:#202020;"/><path d="M216.523,333.901c0.262,0.203,0.467,0.363,0.663,0.515          C217.359,334.371,217.315,334.244,216.523,333.901z" style="fill:#202020;"/><path d="M214.373,332.469c0.454,0.309,0.849,0.635,1.218,0.968c-0.124-0.153-0.162-0.235-0.106-0.228          C215.251,333.054,214.921,332.834,214.373,332.469z" style="fill:#202020;"/><path d="M307.907,332.231c-0.067,0.029-0.137,0.073-0.214,0.102          C307.141,333.311,307.445,332.948,307.907,332.231z" style="fill:#202020;"/><path d="M195.88,224.11c-0.027,0.043-0.029,0.078-0.052,0.118c0.04-0.032,0.089-0.073,0.125-0.102          L195.88,224.11z" style="fill:#202020;"/><path d="M198.058,220.85c-0.217,0.939-0.5,1.55-0.861,2.025c-0.341,0.492-0.757,0.848-1.244,1.25          c0,0,0.636,0.136,1.271,0.271c0.63,0.143,1.259,0.286,1.259,0.286c0,0-0.143-0.958-0.237-1.907          C198.152,221.813,198.058,220.85,198.058,220.85z" style="fill:#202020;"/><path d="M325.977,239.358c0,0-0.157-0.694-0.313-1.389c-0.074-0.351-0.166-0.695-0.239-0.95          c-0.071-0.257-0.118-0.429-0.118-0.429c2.63,2.375,3.352,4.816,3.053,1.994c-0.598,0.19-1.22-0.313-1.853-1.154          c-0.644-0.836-1.365-1.98-2.062-3.139c-1.455-2.278-3.02-4.489-4.16-3.917l-0.626-1.776          c0.282,0.438,0.448,0.421,0.727,0.854c-0.533-1.796-1.302-2.063-2.227-2.331c-0.458-0.138-0.955-0.282-1.491-0.623          c-0.53-0.346-1.106-0.881-1.782-1.773c-0.874-1.299-1.329-2.37-0.407-1.756c0,0-0.679-0.571-1.404-1.089          c-0.713-0.526-1.425-1.052-1.425-1.052c-0.665-0.767-0.19-0.89,0.477-0.123c0.001,0-0.937-0.952-1.954-1.818          c-0.499-0.442-0.998-0.883-1.373-1.215c-0.372-0.333-0.629-0.546-0.628-0.546l0.078-0.028          c-0.838-0.214-2.521-0.88-3.308-1.224c-0.793-1.137,0.679,0.232,0.614-0.222c0,0-0.644-0.373-1.318-0.696          c-0.665-0.333-1.33-0.665-1.33-0.665c-0.56-1.228,1.776-0.27,3.266,1.14c-0.236-1.861-0.871-2.1-1.836-2.516          c-0.491-0.201-1.069-0.447-1.779-0.924c-0.726-0.458-1.571-1.155-2.593-2.321l2.479,1.376          c-0.329-1.093-1.031-1.871-1.919-2.687c-0.921-0.771-2.009-1.604-3.173-2.831c0.227,0.379,1.298,1.744,1.915,2.811          c0.616,1.075,0.771,1.875-0.746,1.267c-0.666-0.624-1.599-1.409-3.356-1.828c0.425-0.745-1.127-1.47-3.037-2.395          l0.673-0.963c-2.23-0.754-2.313-0.169-3.762-0.266c-2.271-1.146-2.393-2.214-2.673-3.137          c-3.789-1.696,2.093,2.38-2.517,0.797c-3.012-1.646-5.495-1.937-9.559-2.282c-2.208-0.922,0.574-0.598-0.174-1.113          l-2.259,0.432c-0.495-0.136-0.275-0.378-0.163-0.5c-1.801-0.011-0.384,1.097-3.136,0.915          c-0.472,0.562-1.756-0.154-3.433-0.791c-1.661-0.703-3.736-1.254-5.479-0.659c-0.821-0.393,0.444-0.682,0.215-1.151          c-4.749,0.778-4.085,0.534-7.861,1.917c0,0-0.815-0.182-1.636-0.295c-0.825-0.129-1.651-0.258-1.651-0.258          c1.231,0.345,1.087,0.834,0.341,1.366c-0.374,0.266-0.899,0.543-1.484,0.818c-0.583,0.298-1.225,0.611-1.841,0.902          c0.867,0.318,1.593,0.588,2.073,0.719c0,0-0.25,0.061-0.623,0.17c-0.371,0.106-0.867,0.248-1.362,0.39          c-0.492,0.141-0.984,0.282-1.354,0.388c-0.369,0.101-0.611,0.186-0.611,0.186c-0.508-0.094-0.179-0.588,0.418-1.149          c-0.265,0.126-0.511,0.262-0.7,0.389c-1.508-0.167-0.887-0.961,0.073-1.792c0.541,0.161,1.075,0.341,1.59,0.521          c0.92-0.83,1.808-1.731,1.519-2.382c-0.26,0.168-0.775,0.35-1.347,0.488c0.248-0.225,0.402-0.417,0.261-0.516          c-0.159-0.104-0.571,0.208-1.219,0.59l-1.154-1.161l-0.155,0.55c0,0-1.421,0.047-2.842,0.094          c-0.716,0.012-1.427,0.072-1.96,0.121c-0.535,0.045-0.892,0.075-0.892,0.075c-3.659,2.232-6.424,4.923-11.841,7.809          c1.034-1.476-0.301-1.566-0.672-2.638c1.038,0.228,2.118-0.332,3.356-1.084c1.251-0.702,2.677-1.589,4.295-1.956          c-1.687,0.379-1.485-0.214-1.124-0.547c0,0-1.32,0.733-2.641,1.466c-0.661,0.35-1.287,0.782-1.768,1.069          c-0.476,0.297-0.793,0.495-0.793,0.495c-0.215-0.894-1.439-0.214-2.999,0.103c0.901,0.593,0.019,1.324-1.313,2.086          c-1.31,0.81-3.082,1.685-3.978,2.514c-0.428-0.463-0.244-1.319,2.449-2.51c-1.747,0.134-2.465,1.063-3.072,2.085          c-0.616,1.021-1.211,1.976-2.833,2.325c0.584-0.4,0.961-0.511,1.046-0.914c-1.143,1.299-4.729,3.167-4.24,2.213          c0,0,0.144-0.105,0.287-0.211c0.142-0.107,0.293-0.202,0.293-0.202c-1.005,0.625-2.24,1.468-3.512,2.413          c-1.228,1.002-2.554,2.032-3.631,3.155c-0.549,0.547-1.065,1.084-1.524,1.593c-0.451,0.519-0.825,1.03-1.135,1.482          c-0.616,0.909-0.928,1.626-0.78,2.019c-0.177-0.107-0.871-1.747-0.877-2.174c0,0-0.17,0.592-0.374,1.502          c-0.186,0.902-0.434,2.106-0.682,3.309c-0.231,1.188-0.38,2.407-0.51,3.287c-0.117,0.88-0.195,1.468-0.195,1.468          c-0.282-0.691-1.475-1.031-2.364-1.59c-0.894-0.569-1.505-1.397-0.484-3.135c-0.442,0.369-0.944,0.779-1.47,1.376          c-0.508,0.612-1.051,1.402-1.604,2.487c0.636-0.503,2.695-0.318,2.151,0.57c-1.471,0.654-1.925,0.949-2.393,1.325          c-0.473,0.379-0.984,0.821-2.523,1.94c0.877-0.802,1.88,1.435,0.883,2.889c-0.112-0.404-1.819-0.975-1.641-1.656          c0,0-0.195,1.235-0.348,2.458c-0.117,1.229-0.234,2.458-0.234,2.458c0.234-1.146-1.403-1.041-2.424-0.424          c0.549-0.244-1.893,3.481-2.197,4.693c0,0,0.309-0.389,0.617-0.778c0.326-0.377,0.652-0.755,0.652-0.755          c-2.496,4.534,0.46,5.728-1.305,10.271c-0.214-0.689-1.97-2.297-3.047,0.082c0.159,0.359,0.418,0.946,0.747,1.69          c0.343,0.745,0.737,1.637,1.103,2.602c0.355,0.963,0.702,2.003,0.991,3.071c0.288,1.067,0.398,2.136,0.432,3.205          l-0.729,0.68c0,0,0.026,0.821,0.053,1.643c0.006,0.408,0.039,0.818,0.068,1.126c0.025,0.307,0.042,0.511,0.042,0.511          c-0.691-1.097-1.533-3.171-2.313-5.499c-0.344-1.152-0.666-2.363-0.93-3.514c-0.248-1.146-0.386-2.219-0.476-3.109          c-0.966,1.734-0.869,0.315-1.527,3.154c-0.789,0.875-0.47-1.763-0.228-2.602c0,0-0.58,1.62-1.024,3.283          c-0.232,0.828-0.486,1.654-0.641,2.281c-0.147,0.63-0.246,1.049-0.246,1.049c0.628-0.035,0.699,1.309,0.75,2.634          c0.092,1.334,0.196,2.656,0.714,2.589c0,0-0.021-0.462-0.053-1.154c-0.045-0.697-0.062-1.623-0.044-2.551          c0.006-0.935,0.012-1.869,0.017-2.569c0.038-0.7,0.063-1.166,0.063-1.166c0.64-0.012,1.204,1.206,1.613,2.971          c0.203,0.883,0.292,1.892,0.351,2.972c0.063,1.081,0.02,2.223-0.18,3.364c-0.289,0.562-0.813,0.294-1.317-0.121          c-0.487-0.411-0.945-0.971-1.154-0.945c0.292,0.667,0.427,4.567,0.094,4.983c0,0-0.133-0.51-0.258-1.024          c-0.125-0.517-0.25-1.033-0.25-1.033c-0.165,0.656-0.167,1.265-0.098,1.852c0.093,0.588,0.262,1.154,0.405,1.732          c0.292,1.159,0.459,2.353-0.058,3.952c-0.025,0.55-0.398,1.383-0.673,2.11c-0.275,0.727-0.397,1.341-0.036,1.413          c1.245-1.91,5.622-2.352,6.683-1.306c-0.034,0.182-0.288,1.543-0.562,3.014c-0.291,1.482-0.522,3.096-0.804,3.739          c-0.861,1.904-2.918-2.265-3.663-0.663c0.34,0.025,0.874,0.952,1.057,1.339c-0.125,1.172-1.126-0.314-0.546,2.123          c1.275,0.199,0.819,4.986,1.238,0.97c0.371,1.156,0.468,1.786,0.524,2.484c0.065,0.695,0.073,1.464,0.455,2.832          c0.264-0.536,1.1-0.089,1.983,0.731c0.881,0.826,1.806,2.021,2.371,3.057c-0.343-0.031-0.565,0.597-0.659,0.901          c0.341,1.156,0.672,2.17,0.982,3.114c0.307,0.945,0.541,1.843,0.863,2.695c0.303,0.86,0.606,1.713,0.95,2.609          c0.382,0.878,0.813,1.796,1.327,2.806c-0.107,0.525,0.708,2.6-0.235,2.052c0.523,0.467,1.186,0.783,1.917,1.983          c0.284,1.428-0.188,0.799-0.7,0.086c-0.493-0.72-1.057-1.507-1.086-0.266c0.686-0.188,2.762,2.643,4.291,4.02          c0.14-0.285,0.051-0.667-0.176-1.106c-0.211-0.45-0.563-0.958-0.98-1.477c-0.414-0.521-0.908-1.046-1.363-1.55          c-0.456-0.507-0.885-0.984-1.228-1.366c1.345-0.757,4.362,1.46,7.612,4.691c2.456,2.668,0.16,1.854,0.704,2.228          c0.503,0.695,0.971,1.263,1.407,1.732c0.45,0.457,0.882,0.806,1.276,1.096c0.798,0.572,1.462,0.902,2.117,1.18          c1.335,0.54,2.364,1.096,4.021,3.389c0.944,2.252-1.252,1.496-1.378,2.352c-2.474-1.799-2.853-3.695-4.259-5.142          c0,0,0.082,0.137,0.205,0.342c0.13,0.199,0.304,0.465,0.477,0.73c0.349,0.534,0.698,1.068,0.698,1.068          c-0.448-0.234-1.066-0.675-1.643-1.183c-0.564-0.519-1.059-1.127-1.315-1.632c0.29,1.019,2.212,3.292,4.668,5.646          c1.194,1.213,2.579,2.379,3.839,3.561c1.319,1.109,2.51,2.25,3.514,3.187c0.986,0.298,2.526,0.978,2.111,0.2l-1.466-0.876          c-0.796-1.534,3.22,0.951,1.697-0.585c1.061,0.442,2.253,0.784,3.465,1.276c1.193,0.526,2.466,1.098,3.703,2.073          l-0.026,1.272c0.093-0.323-1.456-1.605-2.395-1.752c0.695,0.111,1.542,1.043,2.492,1.873          c0.97,0.785,2.032,1.481,2.992,1.152l-1.606-1.691c1.124,0.25,2.398,0.46,3.721,0.672c0.656,0.12,1.31,0.271,1.945,0.481          c0.638,0.205,1.275,0.425,1.87,0.761c-0.72-1.487-0.656-0.079-1.89-2.036c0.433,1.076-1.125,0.351-2.58-0.312          c-1.42-0.721-2.735-1.401-1.928-0.037c-1.073-2.205-2.733-2.176-4.25-4.583c-0.129,0.354,0.388,1.085-1.405-0.281          c-0.144,0.036-0.42,0.021-0.593,0.006c-0.051-0.048-0.069-0.064-0.113-0.105c0.029,0.038,0.052,0.066,0.081,0.104          c-0.112-0.006-0.126-0.001,0.031,0.038c0.364,0.424,0.627,0.823,0.667,1.093c-1.428,0.143-4.419-1.979-5.661-2.397          c-0.97-0.986,0.706,0.017,0.357-0.757l-1.855-0.626c0.333-0.734-1.882-3.344,0.836-1.679c0,0-0.138-0.111-0.345-0.277          c-0.198-0.177-0.463-0.412-0.728-0.646c-0.529-0.471-1.058-0.94-1.058-0.94c-0.492-0.702-1.087-1.508-1.733-2.208          c-0.652-0.695-1.343-1.302-1.939-1.703c-0.79-1.07-2.976-1.835-1.713-1.412c0-0.001-0.213-0.181-0.518-0.467          c-0.309-0.283-0.72-0.662-1.131-1.041c-0.841-0.744-1.621-1.551-1.622-1.551l0.134-0.16          c-1.335-1.741-2.944-3.366-4.375-5.248c-0.696-0.951-1.415-1.919-1.936-3.028c-0.546-1.093-1.018-2.253-1.238-3.551          c-0.42-0.613-0.893-1.22-1.312-1.992c-0.413-0.775-0.838-1.688-1.235-2.865l0.477-0.719          c-0.441-0.836-0.853-2.198-1.137-3.449c-0.294-1.249-0.622-2.335-1.085-2.615c0.642-1.263,0.078-3.422-0.507-5.764          c-0.613-2.328-1.297-4.84-1.31-6.492l-0.933-0.014c-0.145-1.134-0.25-2.247-0.451-3.428          c-0.225-1.179-0.386-2.436-0.612-3.863l-0.811,0.189c-0.405-1.244-0.166-2.863,0.083-4.638          c0.347-1.771,0.731-3.697,0.978-5.639c0.279,0.304,0.061,1.271-0.199,1.952c0.591-1.116,0.898-2.271,1.026-3.468          c0.179-1.187,0.223-2.406,0.234-3.632c0.071-1.213,0.136-2.426,0.316-3.579c0.237-1.137,0.6-2.211,1.208-3.133          c0.038-1.095,0.396-1.792,0.822-2.427c-0.03,0.093-0.043,0.182-0.044,0.261c0.045-0.099,0.098-0.25,0.149-0.407          c0.287-0.391,0.583-0.795,0.901-1.228c-0.355,0.336-0.643,0.682-0.83,1.006c0.218-0.787,0.624-1.952,0.866-3.167          l0.999-0.145c0.027-0.094,0.05-0.17,0.079-0.269c0.774-0.947,0.011-1.035-0.861-0.714c0.122-0.616,0.196-1.201,0.185-1.689          c0.855-0.148,1.04-0.938,1.338-1.735c0.289-0.798,0.615-1.643,1.581-1.876c-0.165-0.55,0.506-1.929,1.048-3.372          c0.567-1.427,1.126-2.858,0.651-3.574c0.191,0.075,0.468-0.18,0.117,0.392c0.877-1.085,1.87-2.062,2.222-3.345l1.238,0.194          l0.685-3.294c1.717-0.987,2.504-1.261,1.981,0.641c0.915-2.057,1.397-2.835,1.877-3.485          c0.481-0.656,0.843-1.297,1.739-3.067l0.372,0.64c0.931-0.937,1.841-3.131,2.874-3.192c1.563-0.488,4.41-2.794,7.961-5.137          c3.537-2.344,7.847-4.631,11.581-5.507c-1.088-0.654-0.205-0.848,0.943-0.967c1.143-0.13,2.486-0.277,2.342-1.104          c0.588,0.304,1.676,0.255,0.672,1.048c1.732-0.828,3.145-1.155,4.413-1.388c1.263-0.268,2.332-0.619,3.472-1.566          c0.541,0.392-0.627,0.899-0.178,1.102c0.27-0.173,1.08-0.697,1.53-0.494c0.439,0.205-0.452,0.537-0.982,0.884          c1.857-0.499,2.825-1.069,3.337-1.744c0.51-0.679,0.557-1.449,0.58-2.19c2.115,0.318,3.079,0.176,4.442-0.982          c0.764,0.417,1.962,0.781-0.476,1.212c0.69-0.089,2.825-0.044,4.779-0.158c1.96-0.024,3.763-0.222,3.842-0.77          c0.436,0.307,1.95,0.136,2.326,0.011c1.57,0.057,2.414,0.236,3.258,0.3c0.421,0.042,0.84,0.079,1.348,0.112          c0.505,0.052,1.097,0.112,1.863,0.19l-0.826-0.297c1.385-1.233,2.613-0.024,5.089,0.284l-0.097,0.129          c1.369,0.479,2.184,0.802,2.753,0.947c0.567,0.152,0.878,0.166,1.186,0.184c0.615,0.02,1.231,0.105,3.768,1.43l-0.042-0.919          c0.528-0.847,1.667-0.179,3.049,0.741c0.698,0.442,1.442,0.985,2.211,1.462c0.769,0.475,1.588,0.819,2.403,0.994          c0,0-0.217-0.244-0.444-0.467c-0.229-0.224-0.458-0.448-0.458-0.448c0.974,0.008,1.861,1.167,2.681,2.34          c0.829,1.167,1.495,2.545,2.222,3.025c0.261,0.317-0.654-0.04-1.177-0.172c1.764,1.514,2.01,1.342,2.233,0.947          c0.224-0.399,0.396-1.025,1.957-0.281c0.234,0.846-1.479,0.96,0.429,2.186c0.338,0.526,2,0.946,3.807,1.687          c0.891,0.386,1.842,0.813,2.663,1.348c0.804,0.557,1.502,1.188,1.931,1.9c-0.24-0.792-0.5-1.599,0.991-0.882          c0.995,0.736,1.99,2.146,2.976,3.465c0.491,0.665,1.002,1.289,1.557,1.777c0.549,0.494,1.11,0.884,1.769,1.022          c0.122,0.316,0.112,0.486,0.035,0.577c1.612,1.049,4.494,4.157,5.824,4.59c-0.163,0.404-0.152,0.833-0.021,1.283          c0.117,0.461,0.357,0.943,0.679,1.436c0.321,0.494,0.727,0.996,1.165,1.505c0.415,0.525,0.869,1.053,1.318,1.571          c0.923,1.02,1.725,2.065,2.193,2.907c0.472,0.842,0.557,1.5-0.069,1.822c0,0,0.69,1.265,1.38,2.531          c0.651,1.285,1.268,2.591,1.268,2.591l-0.322-0.023c1.278,3.441,2.304,4.435,3.353,5.47          c0.098,0.877-0.352,0.362-0.512,0.342c1.092,5.336,1.281,5.74,3.522,9.98l-0.805,0.624c0.172,0.282,0.299,0.916,0.314,1.798          c0.002,0.878,0.006,1.991,0.009,3.229c-0.06,1.24-0.057,2.593-0.015,3.964c-0.011,1.374,0.161,2.763,0.377,4.088          c-0.101-0.054-0.273-0.165-0.39-0.582c0.475,2.971-0.301,6.521-1.114,9.478c-0.751,2.979-1.366,5.434-0.032,6.876          c0,0-0.006,0.252-0.016,0.63c-0.012,0.378-0.011,0.889-0.06,1.389c-0.077,1.011-0.153,2.021-0.153,2.021          c1.662-4.917,1.159,1.133,2.271-0.781c-0.338,2.095-2.544,4.817-1.893,2.366l0.279-0.327          c-0.67-0.687-1.325,0.792-1.949,2.369c-0.626,1.578-1.353,3.22-1.849,2.94c-1.853,4.669-4.409,8.97-7.313,12.857          c-2.918,3.889-6.174,7.369-9.506,10.599c0,0,0.429,0.051,0.858,0.102c0.423,0.038,0.846,0.076,0.846,0.076          s-0.146,0.146-0.363,0.365c-0.229,0.208-0.534,0.486-0.839,0.765c-0.61,0.555-1.22,1.11-1.22,1.11          c-0.837,0.371-1.534,0.024,0.179-1.534c-0.71,0.14-1.272,0.947-1.716,1.697c-0.434,0.756-0.683,1.527-0.614,1.659          c-0.954,0.655-1.411,0.822-1.579,0.727c-0.164-0.093-0.016-0.419,0.192-0.823c0.424-0.799,1.173-1.792,0.641-1.353          c0,0-0.338,0.326-0.676,0.651c-0.337,0.328-0.682,0.647-0.682,0.647l0.424-0.152c-0.847,1.368-0.583,1.938-2.876,3.57          c-1.605,0.815-1.219-0.141-1.814,0.22c-0.051-0.079-0.266,0.02-0.886,0.585c0,0-0.875,0.526-1.749,1.053          c-0.437,0.263-0.873,0.526-1.2,0.724c-0.337,0.181-0.562,0.302-0.562,0.302s0.492,0.03,0.977,0.036          c0.484,0.001,0.97,0.002,0.97,0.002c-1.267,1.438-3.398,1.92-1.115,2.006c-0.425-0.021-0.958,0.076-1.567,0.26          c-0.305,0.092-0.628,0.206-0.968,0.338c-0.173,0.062-0.351,0.124-0.533,0.188l-0.256,0.094l-0.093,0.013          c-0.496,0.078-1.014,0.295-1.504,0.543c-0.971,0.516-1.89,1.058-2.236,0.911c-0.375,1.003-1.067,1.328-1.966,1.596          c0.3,0.118,0.893,1.153,0.073,1.321c-0.649-2.365-1.785-0.435-3.004-1.839c0.47,0.436-0.024,0.722-0.474,1.023          c-0.451,0.293-0.853,0.633-0.145,1.266c-0.703,0.029-0.344-0.848-1.011-1.228c-0.595,0.691-1.47,0.853-2.414,0.892          c-0.95,0.028-1.95-0.01-2.841,0.41c0.051,0.318,0.493,0.701,0.207,1.277c0,0-0.351-0.323-0.701-0.647          c-0.347-0.331-0.693-0.661-0.693-0.661c-0.331,0.236,0.085,1.876-0.855,0.952c0.156,0.24,0.395,0.603,0.163,0.761          c-1.026-0.157-1.99-0.051-2.955,0.103c-0.963,0.158-1.903,0.489-2.873,0.679c-0.968,0.197-1.949,0.354-2.944,0.309          c-0.999-0.085-2.014-0.39-3.016-1.045c0.559,0.579,0.218,0.667-0.182,0.721c0.27,0.128,0.042,0.789,0.118,1.219          c0,0-0.429-0.26-0.853-0.548c-0.42-0.291-0.84-0.582-0.84-0.582c-0.257,1.211-1.742,0.126-1.896,1.281l0.519-0.221          c-0.687,1.377,1.045,2.994,1.009,4.739c0.39-0.782,0.944-0.225,1.583,0.247c0.634,0.45,1.356,0.797,1.953-0.355          c0.327,0.331-0.214,0.58-0.023,0.971c0.293-0.772,0.688-0.959,1.491-0.684l-0.07,0.19c1.079-0.158,1.859-0.167,2.698-0.034          c0.835,0.104,1.73,0.351,2.99,0.354l-0.32-0.819c0.538,0.021,0.693,0.269,0.976,0.438c0.373-1.395-1.476,0.188-1.165-1.331          c0.98,1.602,3.635-0.6,4.501,1.196c0.803-0.175-0.447-0.922,0.35-1.093l0.331,0.477l0.045-0.724          c0.543-0.007,0.965,0.587,1.093,1.026c-0.14-0.023-0.333,0.209-0.462,0.278c0.838,0.463,1.88-0.657,2.155-0.54l-0.848-0.113          c1.021-0.534,2.225-0.835,3.406-1.192c1.175-0.373,2.301-0.89,3.137-1.742l-0.29-0.332c1.286-1.221,1.379-0.033,2.932-0.999          l-0.025,0.113c0.185-0.508,0.549-0.871,1.02-1.008c-0.239,0.607,1.151,0.539,0.803,1.245          c1.312-1.464,0.563-0.946,1.003-2.802l0.522,0.505c0.106-0.718,0-1.023,0.724-1.542c-0.411,0.821,0.96,0.693,0.544,1.723          c1.179,0.282,1.634-0.409,2.015-0.914c0.189-0.259,0.358-0.482,0.59-0.547c0.116-0.032,0.249-0.025,0.407,0.038          c0.04,0.016,0.082,0.034,0.125,0.058l0.066,0.037l0.155-0.002c0.211,0.001,0.429,0.018,0.657,0.053          c0.425-0.763,0.289-1.043-0.106-1.032c-0.352-0.011-1.284,0.356-1.305,0.329c-0.437,0.139-0.83,0.462-0.708,0.174          c-0.317-0.18-0.319-0.571-0.17-0.928c0.074-0.178,0.187-0.348,0.317-0.479c0.033-0.032,0.067-0.063,0.102-0.091          c0.121-0.067,0.24-0.135,0.356-0.2c0.255-0.127,0.497-0.247,0.716-0.355c0.869-0.476,1.893-0.375,3.27-0.49          c0.687-0.06,1.436-0.215,2.301-0.507c0.862-0.295,1.836-0.737,2.867-1.507c-0.422,0.289-0.37,0.426-0.791,0.715          c0.921-0.361,1.603-1.044,2.341-1.723c0.741-0.679,1.488-1.419,2.667-1.84c0.346-1.664,2.384-1.938,1.737-3.258          c0,0-0.825,0.824-1.651,1.649c-0.864,0.786-1.729,1.573-1.729,1.573c0.932-0.963,1.611-2.15,2.472-3.411          c0.898-1.223,1.951-2.53,3.783-3.724c-0.035,0.436-0.698,1.597-1.197,2.366c1.201-0.585,1.603-1.856,2.8-2.52          c0.814,1.345-3.834,4.19-5.337,6.844c1.473-0.436,3.4-4.36,3.37-2.239c0.087-1.455,1.04-2.268,2.166-3.189          c1.063-0.972,2.386-1.988,2.938-3.821l0.496,0.746c0.263-0.511,0.703-1.642,1.382-2.394l-0.356,2.123          c0.286-0.697,0.696-1.264,1.16-1.777c0.447-0.526,0.962-0.989,1.487-1.445c1.067-0.894,2.111-1.819,2.693-3.097          c-1.647,2.37-2.09,2.438-2.3,2.162c-0.215-0.281-0.248-0.927-1.235-0.18c0.869-1.527,1.451-2.477,2.069-3.048          c0.598-0.585,1.167-0.835,1.732-1.128c1.121-0.585,2.528-1.174,4.306-4.767c-0.436,1.006-2.465,3.243-1.97,1.582          c0.901-1.21,2.197-2.767,2.996-3.405c2.244-4.779-1.158,0.315-0.612-1.916c1.773-1.108,0.701-2.511,1.335-4.679l0.814,0.329          c1.362-2.651,1.072-3.19,0.774-3.636c-0.289-0.447-0.631-0.819,0.538-3.199l0.434,2.516l0.594-2.735l0.766,0.852          c0.155-1.557,0.232-2.568,0.512-3.517c0.277-0.949,0.624-1.871,1.086-3.297c-0.783,0.527-1.408-0.729-0.969-3.27          c0.824-1.65,0.646,1.134,1.171-2.532c0.398,0.9,0.913,1.948-0.169,3.395c0.259,0.22,0.388,0.927,0.617,1.152          c0.975-1.795,1.042-4.808,1.164-6.158c-0.1,0.517-0.226,1.133-0.391,1.434c0,0-0.13-1.387-0.26-2.772          c-0.056-0.687-0.144-1.372-0.228-1.886c-0.075-0.512-0.126-0.853-0.126-0.853c0.394-0.818,0.606-0.132,0.813,0.561          c-0.025-1.105-0.322-1.887-0.345-3.489c0.699,0.447,1.47,0.374,1.62,2.712c0,0-0.024-0.33-0.062-0.825          c-0.039-0.494-0.075-1.151-0.17-1.808c-0.165-1.306-0.33-2.612-0.33-2.612c0.353-0.337,0.827-2.68,1.106-2.005          c0.178-1.464-0.197-3.252-0.705-5.115c-0.432-1.875-1.043-3.81-1.003-5.75c-0.159-0.177-0.368-0.549-0.608-1.331          c-0.117-0.889-0.188-1.763-0.254-2.638c-0.102-0.868-0.209-1.735-0.352-2.619c-0.133-0.886-0.334-1.779-0.66-2.683          c-0.321-0.904-0.691-1.841-1.256-2.778l0.434-2.711c-0.681-1.555-0.791-0.625-1.02,0.029          c-0.251,0.667-0.519,1.021-1.735-1.453c-1.809-3.461,0.485-1.766,0.29-3.182c-0.704-0.771-1.692-1.797-2.591-3.065          c-0.972-1.236-1.742-2.772-2.218-4.566C325.131,237.484,325.39,238.409,325.977,239.358z M298.576,209.662          c0.776,0.248,2.381,0.719,2.557,1.473C299.809,211.448,299.563,210.615,298.576,209.662z M239.759,200.368          c0.503-0.385,1.409-0.402,2.443-0.249C241.504,200.317,240.698,200.428,239.759,200.368z M206.84,327.131          c-0.031-0.01-0.054-0.018-0.084-0.021C205.852,325.775,206.164,326.258,206.84,327.131z M209.029,329.606          c0.33,0.124,0.391,0.016,0.365-0.169c-0.316,0.02-0.885-0.453-1.479-1.049C207.938,328.712,208.157,329.111,209.029,329.606          z M295.75,334.442l0.656-0.187C295.36,335.311,295.564,334.885,295.75,334.442z" style="fill:#202020;"/><path d="M246.37,198.121c0.236,0.12,0.313,0.275,0.382,0.433          C247.039,198.369,247.029,198.198,246.37,198.121z" style="fill:#202020;"/><path d="M334.276,263.448l0.005,0.126c0.062,0.061,0.119,0.089,0.174,0.103L334.276,263.448z" style="fill:#202020;"/><path d="M177.542,287.014c0.03-0.761,0.137-1.195,0.267-1.489          C177.59,285.511,177.453,285.87,177.542,287.014z" style="fill:#202020;"/><path d="M224.188,337.896l-1.946-0.739c0.913,0.417,1.141,0.75,1.531,1.106          C223.823,338.059,223.607,337.614,224.188,337.896z" style="fill:#202020;"/><path d="M231.45,346.77c0.125-0.071,0.197,0.054,0.321-0.02l0.103-0.395          C231.481,346.25,231.104,346.47,231.45,346.77z" style="fill:#202020;"/><path d="M224.676,341.37c-0.154,0.73,1.183,1.096,2.63,1.551c-0.085-0.03-0.168-0.057-0.249-0.098          C227.857,342.051,226.273,341.726,224.676,341.37z" style="fill:#202020;"/><path d="M227.642,343.026c0.223,0.069,0.447,0.144,0.667,0.225l0.326,0.129l0.152,0.066l0.043,0.028          c0.049-0.092,0.066-0.146,0.06-0.177c-0.008-0.031-0.01-0.025-0.171-0.066C228.455,343.174,228.049,343.13,227.642,343.026z          " style="fill:#202020;"/><path d="M212.568,331.846c0.434,0.582,0.906-0.481,1.044-0.014          C214.779,331.588,209.287,329.885,212.568,331.846z" style="fill:#202020;"/><polygon points="224.797,344.096 224.666,343.036 223.568,343.347         " style="fill:#202020;"/><path d="M214.395,337.644l1.944,1.546c0.05-0.152,0.355-0.051,0.727,0.076          C215.785,338.448,214.499,337.381,214.395,337.644z" style="fill:#202020;"/><path d="M217.066,339.266c0.676,0.409,1.339,0.768,1.793,0.856          C218.484,339.918,217.673,339.486,217.066,339.266z" style="fill:#202020;"/><polygon points="221.6,342.889 221.03,342.383 219.497,341.521         " style="fill:#202020;"/><path d="M195.442,319.361l-1.772-2.041c-0.418-0.05-0.149,0.66,0.538,1.411          C194.763,319.134,195.438,319.876,195.442,319.361z" style="fill:#202020;"/><path d="M198.741,327.326c-0.372-0.676-0.238-0.863-0.293-1.375l-0.901,0.686          c0,0,0.296,0.175,0.593,0.351C198.432,327.166,198.741,327.326,198.741,327.326z" style="fill:#202020;"/><path d="M193.39,321.238c-0.407-0.031-3.091-2.794-0.967,0.071          C192.823,321.379,194.728,323.437,193.39,321.238z" style="fill:#202020;"/><polygon points="180.125,282.371 180.192,283.063 182.029,282.784         " style="fill:#202020;"/><path d="M181.412,245.143c-1.661,3.035,0.736,1.161-0.851,3.851c0.082,0.453,0.378-0.109,0.694-0.655          c0.327-0.543,0.645-1.083,0.673-0.637C182.243,245.642,182.886,244.729,181.412,245.143z" style="fill:#202020;"/><path d="M181.929,247.701c-0.051,0.33-0.095,0.681-0.115,1.063          C181.918,248.177,181.938,247.888,181.929,247.701z" style="fill:#202020;"/><polygon points="256.829,346.067 256.248,345.695 256.629,346.309         " style="fill:#202020;"/><path d="M255.734,347.471l-0.144-1.178l-0.346,1.078          C255.376,347.315,255.631,347.207,255.734,347.471z" style="fill:#202020;"/><path d="M294.553,204.444l-0.286,0.164c0.152,0.441,0.593,0.72,1.474,1.283L294.553,204.444z" style="fill:#202020;"/><path d="M317.171,224.314l-0.319-0.408c0,0-0.048,0.354-0.095,0.708          c-0.054,0.355-0.108,0.71-0.108,0.71L317.171,224.314z" style="fill:#202020;"/><path d="M331.263,245.467c-0.333-0.999-1.021-2.047-1.429-3.015c0.572,0.997,0.646,1.948,0.706,2.549          C330.61,245.598,330.695,245.844,331.263,245.467z" style="fill:#202020;"/></g></g></g><g><g><g><path d="M399.73,193.11c-0.051,0.392,0.705,0.25,0.845,0.311          C400.381,192.73,399.532,193.139,399.73,193.11z" style="fill:#202020;"/><path d="M396.61,187.655l0.322-0.049c0,0-0.263-0.102-0.526-0.204          c-0.271-0.083-0.543-0.165-0.543-0.165s0.19,0.099,0.382,0.197C396.432,187.538,396.61,187.655,396.61,187.655z" style="fill:#202020;"/><path d="M393.287,183.54c-0.208,0.657,0.143,0.921,0.64,1.16c0.461,0.263,1.081,0.521,1.176,1.045          l-0.142,0.303c0,0,0.271-0.074,0.543-0.147c0.276-0.066,0.553-0.133,0.553-0.133          C395.232,184.832,393.663,184.318,393.287,183.54z" style="fill:#202020;"/><path d="M392.132,179.494c-0.035,0.555-0.854,0.05,0.644,0.509c-0.04-0.088-0.044-0.127-0.063-0.186          C392.584,179.759,392.412,179.672,392.132,179.494z" style="fill:#202020;"/><path d="M392.712,179.818C393.326,180.13,392.521,179.225,392.712,179.818L392.712,179.818z" style="fill:#202020;"/><path d="M389.706,178.871c-0.001-0.021,0.996-0.133,0.996-0.133          c-0.073-0.348-0.845-0.689-0.485-0.793C389.205,177.913,389.347,178.27,389.706,178.871z" style="fill:#202020;"/><path d="M388.666,179.577l0.469-0.076C389.096,179.362,388.987,179.288,388.666,179.577z" style="fill:#202020;"/><path d="M390.153,179.396c0,0-0.255,0.017-0.51,0.034c-0.254,0.036-0.509,0.072-0.509,0.072          c0.066,0.235-0.051,0.638,0.455-0.028C389.406,179.819,389.684,179.512,390.153,179.396z" style="fill:#202020;"/><path d="M390.589,179.766c0.357,0.428,0.801,0.837-0.118,0.928c0.738,0.213,1.153,0.14,1.206-0.096          C391.724,180.383,391.396,179.966,390.589,179.766z" style="fill:#202020;"/><path d="M392.247,184.438c0,0,0.154,0.592,0.144,0.598l0.601-0.042          C392.706,185.002,392.486,184.089,392.247,184.438z" style="fill:#202020;"/><path d="M384.605,177.544c-0.037,0.276,0.195,0.737,0.239,1.09l0.431-0.317          C385.054,178.128,384.635,177.954,384.605,177.544z" style="fill:#202020;"/><path d="M384.845,178.634l-0.645,0.475C384.775,179.165,384.881,178.939,384.845,178.634z" style="fill:#202020;"/><path d="M388.195,180.946c0,0,0.398-0.154,0.797-0.309c0.413-0.161,0.835-0.255,0.835-0.254          c0,0-0.491,0.077-0.969,0.226c-0.477,0.136-0.92,0.287-0.92,0.287L388.195,180.946z" style="fill:#202020;"/><polygon points="382.145,177.509 382.51,176.87 381.859,177.836         " style="fill:#202020;"/><path d="M380.513,177.622c0.27-0.53-0.371-0.897-0.085-1.223c-0.443,0.095-0.822,0.55-1.163,0.959          C379.627,177.129,380.013,177.188,380.513,177.622z" style="fill:#202020;"/><path d="M378.692,177.954c0.181-0.127,0.368-0.354,0.572-0.596          C379.072,177.479,378.883,177.656,378.692,177.954z" style="fill:#202020;"/><path d="M383.103,178.972c-0.05-0.167-0.146-0.604-0.507-0.789l0.253,0.777          C382.927,178.964,383.014,178.968,383.103,178.972z" style="fill:#202020;"/><path d="M382.857,178.985l-0.009-0.025c-0.274-0.021-0.465-0.037-0.547-0.043          C382.372,178.926,382.539,178.947,382.857,178.985z" style="fill:#202020;"/><path d="M383.167,178.976c-0.023-0.001-0.041-0.002-0.064-0.003          C383.127,179.049,383.142,179.074,383.167,178.976z" style="fill:#202020;"/><path d="M386.094,179.939c-0.263,0.204-0.673,0.409-0.833,0.661          c-0.134,0.258-0.189,0.527,0.261,0.877C385.875,180.961,385.31,180.555,386.094,179.939z" style="fill:#202020;"/><path d="M383.481,179.948l0.685,0.178c-0.014-0.205-0.138-0.504,0.05-0.721L383.481,179.948z" style="fill:#202020;"/><polygon points="383.146,180.194 383.481,179.948 383.228,179.882         " style="fill:#202020;"/><path d="M379.864,178.682c-0.295,0.338-0.619,0.367-0.984,0.422c0.392,0.153,0.797,0.234,1.181,0.233          C380.115,179.092,380.284,178.654,379.864,178.682z" style="fill:#202020;"/><path d="M381.319,178.897c-0.021,0.014-0.047,0.032-0.066,0.044          C381.294,179.008,381.326,179.029,381.319,178.897z" style="fill:#202020;"/><path d="M375.284,179.098c0.02,0.048,0.037,0.091,0.058,0.141c0.005-0.045,0.009-0.083,0.014-0.134          L375.284,179.098z" style="fill:#202020;"/><path d="M380.127,179.481c0.294,0.15,0.47-0.04,0.638-0.28c-0.221,0.079-0.454,0.129-0.704,0.135          C380.036,179.447,380.032,179.52,380.127,179.481z" style="fill:#202020;"/><path d="M377.688,178.317c0.153,0.163,0.327,0.3,0.51,0.427          C378.049,178.499,377.743,178.115,377.688,178.317z" style="fill:#202020;"/><path d="M381.154,178.727c0.015-0.013,0.028-0.027,0.044-0.035          C381.102,178.525,381.114,178.607,381.154,178.727z" style="fill:#202020;"/><path d="M381.154,178.727c-0.151,0.112-0.271,0.304-0.39,0.474c0.179-0.061,0.345-0.145,0.488-0.259          C381.217,178.887,381.181,178.803,381.154,178.727z" style="fill:#202020;"/><path d="M374.194,184.09c0.053-0.721,0.826-1.387,1.494-0.614c0.657-0.54,0.228-2.911-0.347-4.237          c-0.021,0.314-0.021,0.605-0.696,1.031c0.236,0.394,1.5,0.921,0.93,1.573c-0.896,0.371-0.734-0.255-1.17-0.636          c0.37,0.898-1.14,1.307-0.944,2.627l0.786-0.465C374.262,183.575,373.977,183.902,374.194,184.09z" style="fill:#202020;"/><path d="M376.631,179.313l0.277-0.089c-0.316-0.125-0.544-0.414-0.962-0.978          c-0.463,0.352-0.559,0.62-0.591,0.859l1.37,0.101L376.631,179.313z" style="fill:#202020;"/><path d="M378.158,179.22c-0.218,0.784-0.886,1.118-0.477,1.967c0.816-0.054,0.572-0.655,1.061-0.996          c-1.318,0.194,0.378-0.437-0.574-0.881c0.26-0.133,0.492-0.174,0.712-0.207c-0.237-0.096-0.466-0.214-0.682-0.359          c0.013,0.019,0.021,0.033,0.03,0.048l0.007-0.002l-0.002,0.012c0.058,0.098,0.076,0.157,0.012,0.101          c-0.004,0.01-0.021,0.014-0.027,0.016c-0.009,0.109-0.033,0.204-0.06,0.296c-0.382-0.162-0.06-0.204,0.06-0.296          c0.004-0.039,0.015-0.075,0.016-0.117l-0.005-0.01l-1.32,0.43C377.188,179.333,377.538,179.31,378.158,179.22z" style="fill:#202020;"/><path d="M384.783,183.154c-0.041-0.069-0.039-0.125-0.043-0.182          C384.655,183.068,384.623,183.134,384.783,183.154z" style="fill:#202020;"/><path d="M384.24,182.681c0.096-0.109,0.176-0.423,0.487-0.342c0.271,0.236-0.001,0.376,0.013,0.634          c0.188-0.208,0.658-0.563,0.068-0.944l-0.093,0.106c-0.531-0.269-1.215-1.248-1.122-1.355          C383.749,181.485,383.886,181.988,384.24,182.681z" style="fill:#202020;"/><path d="M381.161,181.151l-1.1,0.384l0.56,0.679l-0.028-0.408          C381.219,181.966,381.083,181.464,381.161,181.151z" style="fill:#202020;"/><polygon points="375.158,178.708 375.305,177.879 374.669,179.049         " style="fill:#202020;"/><polygon points="373.729,178.807 373.783,178.086 373.405,178.521         " style="fill:#202020;"/><path d="M228.978,363.492l2.416-0.205C230.251,363.352,229.516,363.42,228.978,363.492z" style="fill:#202020;"/><path d="M211.486,363.443l-0.429,0.354C211.868,363.603,212.2,363.458,211.486,363.443z" style="fill:#202020;"/><path d="M166.116,178.888c-3.52-0.673-7.452-1.715-7.026-0.906l1.08,0.79          C162.629,178.63,164.514,178.718,166.116,178.888z" style="fill:#202020;"/><path d="M115.339,316.501c0.079-0.335,0.16-0.685,0.241-1.03c-0.271-0.854-0.527-1.657-0.755-2.376          C114.979,314.119,115.155,315.282,115.339,316.501z" style="fill:#202020;"/><path d="M118.606,318.984l-0.509,4.64C118.275,322.58,118.445,321.088,118.606,318.984z" style="fill:#202020;"/><path d="M324.513,362.655l2.818-0.805C322.92,361.854,324.861,362.26,324.513,362.655z" style="fill:#202020;"/><path d="M295.133,137.814c-1.779-0.876-3.598-1.382-5.369-1.551          c-0.223-0.019-0.442-0.037-0.659-0.055c-0.168-0.01-0.334-0.02-0.498-0.029c-0.299-0.014-0.591-0.026-0.877-0.039          c-0.573-0.017-1.122-0.032-1.653-0.047c0.914,0.126,1.785,0.247,2.592,0.358c0.521,0.077,1.022,0.15,1.498,0.221          c0.506,0.083,0.962,0.213,1.398,0.308C293.27,137.442,294.432,137.875,295.133,137.814z" style="fill:#202020;"/><path d="M222.095,371.871c1.479-0.143,2.11-0.304,2.067-0.479          C222.64,371.526,221.779,371.677,222.095,371.871z" style="fill:#202020;"/><path d="M277.306,136.096c0.535,0.079,1.06,0.119,1.604,0.186c2.221-0.132,4.454-0.239,7.166-0.188          C283.374,135.755,280.28,135.548,277.306,136.096z" style="fill:#202020;"/><path d="M390.806,210.839c0.036-0.034,0.053-0.074,0.095-0.105          C390.793,210.724,390.788,210.771,390.806,210.839z" style="fill:#202020;"/><path d="M398.773,197.344c0.049,0.133,0.05,0.35,0.061,0.554          C398.889,197.799,398.883,197.632,398.773,197.344z" style="fill:#202020;"/><path d="M334.648,178.462C336.916,178.411,335.008,178.375,334.648,178.462L334.648,178.462z" style="fill:#202020;"/><path d="M345.67,181.585c-0.481,0.088-0.848,0.202-0.904,0.384          C344.952,181.779,345.268,181.658,345.67,181.585z" style="fill:#202020;"/><path d="M254.731,141.01c-0.066-0.001-0.12-0.001-0.196-0.002          C255.21,141.162,255.093,141.133,254.731,141.01z" style="fill:#202020;"/><path d="M338.059,178.821c-0.851-0.097-1.831-0.178-2.898-0.235          C335.629,178.648,336.51,178.725,338.059,178.821z" style="fill:#202020;"/><path d="M337.601,178.448c0.781,0.03,1.396,0.054,1.98,0.077          C339.867,178.393,339.614,178.31,337.601,178.448z" style="fill:#202020;"/><path d="M331.491,178.504c1.296-0.012,2.506,0.025,3.669,0.082c-0.445-0.053-0.631-0.098-0.512-0.124          C333.984,178.471,333.047,178.484,331.491,178.504z" style="fill:#202020;"/><path d="M392.919,273.477c0.025-0.149,0.041-0.322,0.074-0.485          C392.666,270.705,392.719,271.709,392.919,273.477z" style="fill:#202020;"/><path d="M118.824,195.753c-0.008-0.106-0.029-0.163-0.038-0.259c-0.009,0.106-0.02,0.239-0.027,0.335          L118.824,195.753z" style="fill:#202020;"/><path d="M119.413,203.893c-0.983-3.466-0.862-5.438-0.654-8.063l-2.277,2.692L119.413,203.893z" style="fill:#202020;"/><path d="M270.862,363.265l-5.717-0.709c6.9-1.168,11.893-0.766,6.524-1.764          c-0.808,2.473-22.218,0.254-23.013,2.723l-3.769-0.52c1.08,0.024,1.253-0.121,2.32-0.097          c-7.329-1.184-5.444,1.787-14.887,1.436c-3.29-0.189-5.587-0.549-3.343-0.842l-7.332,0.611          c-2.134-0.049-1.612-0.478,0.512-0.431l-11.184,0.197l0.083-0.072c-1.595,0.388-5.211,0.987-6.976,1.242          c-2.842-0.354,1.426-0.262,0.698-0.57l-6.192,0.599c-2.522-0.641,2.609-1.262,6.887-1.17          c-5.783-2.468-5.138,0.622-17.619-0.819l5.846-0.314c-3.769-1.401-8.332-0.894-14.943-1.769          c1.569,0.457,13.235,2.204,6.514,2.819c-1.895-0.187-4.39-0.275-8.017,0.222c-0.033-0.879-3.573-0.662-8.003-0.612          l0.302-1.165c-4.79,0.336-4.411,0.929-7.229,1.453c-5.338-0.115-6.444-1.017-7.701-1.776          c-8.548-0.185,5.903,1.446-4.214,1.666c-7.109-0.445-12.102,0.03-20.606,0.727c-4.976-0.4,0.871-0.712-0.914-1.045          c0,0-1.103,0.232-2.206,0.464c-0.551,0.116-1.103,0.232-1.516,0.319c-0.266,0.071-0.444,0.119-0.444,0.119          c-0.687-0.081-0.411-0.364-0.297-0.479c-1.11,0.002-1.256,0.187-1.563,0.389c-0.156,0.091-0.367,0.189-0.773,0.116          c-0.418-0.043-1.044-0.268-1.917-0.925c-0.439,0.056-1.02-0.461-1.5-1.358c-0.465-0.901-0.764-2.193-0.637-3.53          c0.09-0.852,0.185-1.744,0.281-2.653c0.091-0.992,0.164-2.004,0.199-3.013c0.071-2.019-0.004-4.026-0.369-5.834          c0.331-1.781,0.713,0.86,1.164,0.315c-0.955-9.921-0.694-8.505-1.98-16.651l0.764-6.939          c-0.874,5.099-1.908-1.416-2.758-7.123c-0.422,1.809-0.792,3.354-0.968,4.391l-0.625-9.106          c0.191-1.101,0.591-0.183,1.078,1.31c-0.097-0.622-0.191-1.21-0.28-1.669c0.431-3.257,1.102-1.568,1.752,0.765          c-0.242,1.108-0.483,2.209-0.717,3.28c0.707,2.25,1.49,4.354,2.171,3.886c-0.134-0.592-0.25-1.731-0.315-2.984          c0.193,0.588,0.364,0.964,0.479,0.69c0.123-0.309-0.134-1.259-0.432-2.748l1.298-2.07l-0.516-0.502l0.813-11.916          c-1.307-8.524-3.229-15.939-3.765-29.471c0.952,3.357,1.554,0.722,2.682,0.904c-1.194,3.692,0.507,10.479,0.265,17.492          c0.125-3.659,0.662-2.854,0.85-1.924l-1.086-12.507c0.922,0.282,0.691-2.656,1.073-5.923          c-1.823,2.47-1.214-9.323-1.772-14.412c0.612-0.315,1.237,0.904,1.089,7.113c1.373-6.85-2.141-8.851-0.974-15.575          c0.014,1.516-0.08,2.333,0.231,2.932c-0.544-3.54-0.113-12.198,0.42-10.16l0.012,1.512          c0.216-10.064,0.014-30.637-1.534-32.14c0.2-0.1,1.866,1.319,2.179,1.928c0,0-1.302-4.489-2.604-8.979          c-0.651-2.245-1.302-4.489-1.791-6.173c-0.119-0.427-0.241-0.792-0.327-1.163c-0.079-0.391-0.148-0.731-0.205-1.011          c-0.057-0.579-0.089-0.91-0.089-0.91c0.256,0.513,0.718,0.461,1.24,0.326c0.513-0.145,1.123-0.354,1.669-0.34          c0.549,0.007,0.995,0.218,1.325,0.747c0.182,0.267,0.292,0.604,0.453,1.042c0.036,0.122,0.061,0.194,0.096,0.374          c0.033,0.183,0.067,0.377,0.104,0.584c0.064,0.414,0.121,0.879,0.168,1.401c0.042-0.6,0.087-1.234,0.137-1.928          c0.024-0.327,0.066-0.47,0.083-0.728c0.045-0.228,0.093-0.467,0.143-0.719c0.254-0.981,0.654-2.168,1.71-3.449          c-0.467,0.258-1.24,0.49-1.877,0.556c-0.584,0.089-1.082-0.118-0.552-0.922c1.088-0.804,1.906-1.081,2.499-1.31          c0.613-0.196,1.038-0.302,1.492-0.401c0.457-0.079,0.94-0.177,1.648-0.142c0.177,0.012,0.362,0,0.568,0.046          c0.219,0.034,0.457,0.071,0.715,0.112c0.684,0.11,1.481,0.238,2.426,0.39c-2.449-0.285,0.272-2.37,4.145-2.303          c-0.605,0.312,0.323,2.058-1.093,2.275l9.639-2.047c-2.407,0.369-0.426,1.735,1.731,2.313c-1-0.4,8.333,0.037,10.901-0.166          l-4.084-0.474c10.881,0.31,10.749-2.878,21.543-2.771c-1.306,0.423-3.227,2.602,2.264,2.859          c1.258-0.524,4.043-1.784,7.708-3.015c1.832-0.615,3.884-1.223,6.076-1.727c0.542-0.119,1.093-0.24,1.649-0.362          c0.467-0.126,0.924-0.26,1.378-0.436c0.906-0.344,1.786-0.775,2.645-1.265c0,0,0.41-0.035,0.82-0.069          c0.411-0.053,0.832-0.132,0.832-0.132s0.081-0.06,0.221-0.165c0.133-0.114,0.324-0.276,0.553-0.471          c0.452-0.394,1.007-0.964,1.504-1.566c0.48-0.616,0.917-1.246,1.171-1.747c0.283-0.487,0.407-0.828,0.407-0.828          c-0.106,0.971-0.531,2.433-1.532,4.04c-1.004,1.584-2.579,3.291-4.747,4.53c-1.068,0.611-2.351,1.077-3.616,1.36          c-1.173,0.277-2.337,0.553-3.463,0.819c-2.255,0.518-4.367,0.967-6.115,1.29c4.071,0.475,1.133,0.706,7.232,0.652          c2.154,0.562-3.324,0.852-5.118,0.885c0,0,3.549,0.091,7.099,0.182l0.679,0.015c0.327-0.008,0.653-0.017,0.976-0.025          c0.656-0.004,1.256-0.115,1.859-0.183c0.588-0.096,1.142-0.223,1.669-0.342c0.51-0.146,0.995-0.287,1.436-0.429          c0.861-0.313,1.568-0.599,2.038-0.835c0.479-0.223,0.746-0.362,0.746-0.362c-0.662-0.361,2.432-2.226,4.539-5.056          c1.085-1.38,1.95-2.958,2.384-4.198c0.446-1.237,0.472-2.101,0.188-2.005c0,0-0.09,0.299-0.247,0.822          c-0.195,0.499-0.454,1.237-0.884,2.042c-0.822,1.639-2.249,3.604-4.051,5.192c-1.77,1.625-3.913,2.856-5.688,3.542          c-0.875,0.363-1.672,0.561-2.22,0.714c-0.568,0.117-0.893,0.183-0.893,0.183c-0.512-0.6,2.568-1.553,5.742-4.216          c1.604-1.312,3.264-3.037,4.63-5.185c0.683-1.073,1.264-2.271,1.694-3.558c0.236-0.671,0.363-1.215,0.558-1.824          c0.182-0.595,0.374-1.192,0.575-1.788c1.232-2.295,1.504,2.479,1.956,2.402c-0.01-1.373,2.094-9.351,2.656-10.143          l-0.654,4.268c2.117-5.205,1.191-9.206,4.322-15.277c0.097-0.274,0.225-0.576,0.375-0.895          c0.136-0.219,0.272-0.422,0.427-0.636c0.347-0.417,0.749-0.82,1.163-1.161c0.807-0.696,1.578-1.143,1.418-1.513          c-1.432,0.436-3.086,0.401-4.449-0.042c-1.342-0.434-2.327-1.509-1.836-3.044c0.301-0.357,2.859-2.985,6.345-4.22          c1.713-0.648,3.591-0.983,5.187-0.94c0.803,0.024,1.522,0.124,2.069,0.228c0.567,0.1,1.035,0.195,1.366,0.281          c1.913,0.547,0.477,1.2-1.03,1.833c-0.374,0.159-0.766,0.313-1.085,0.471c-0.276,0.169-0.499,0.331-0.636,0.482          c-0.278,0.308-0.209,0.572,0.382,0.781c0.023-0.084,0.128-0.18,0.308-0.277c0.232-0.088,0.537-0.175,0.865-0.256          c0.656-0.161,1.405-0.297,1.845-0.364c2.44,0.286-1.01,1.036,4.291,0.885c0.884-1.241,10.782,0.105,2.506-1.048          c5.185-0.354,5.511,0.254,11.6,0.201c-1.938-0.801,5.467-2.729,10.662-3.082c-0.306,0.315,0.861,0.727,1.426,0.914          c10.629,0.112,16.335,0.675,26.247,0.687c0.914,0.3,5.697,0.664,3.659,1.198c0.712-0.126,1.399-0.249,2.285-0.406          c0.876-0.117,2.047-0.307,3.328-0.165c1.254,0.468,1.446,0.727,1.188,0.736c-0.133,0.014-0.386-0.014-0.702-0.066          c-0.316-0.024-0.699-0.077-1.086-0.088c-0.691-0.02-1.803,0.047-2.237,0.154c-0.467,0.113-0.417,0.298,0.711,0.621          c0.048-0.09,0.208-0.173,0.459-0.251c0.118-0.037,0.289-0.079,0.427-0.108c0.133-0.024,0.282-0.051,0.445-0.081          c0.656-0.106,1.593-0.087,2.632,0.153c2.094,0.428,4.495,1.793,5.97,3.127c0.024-0.811-1.709-2.656-4.282-3.645          c-1.268-0.503-2.702-0.779-4.007-0.748c-0.334,0.022-0.625,0.029-0.969,0.06c-0.349,0.034-0.689,0.067-1.019,0.1          c-0.658,0.067-1.271,0.129-1.817,0.185c-0.005-0.384,0.466-0.772,1.337-1.15c0.875-0.349,2.106-0.847,3.845-0.88          c1.708-0.017,3.826,0.389,5.971,1.479c2.133,1.087,4.35,2.818,5.984,5.431c0.293,0.536,0.564,1.021,0.748,1.494          c0.184,0.464,0.361,0.925,0.442,1.211c0.198,0.633,0.327,1.115,0.404,1.48c0.154,0.73,0.102,0.992-0.021,1.052          c-0.244,0.12-0.762-0.564-0.443,0.084c2.19,7.417,3.817,10.358,5.246,13.018c0.715,1.33,1.379,2.59,2.04,4.304          c0.328,0.845,0.664,1.854,0.989,2.95c0.225,0.79,0.595,1.73,1.244,2.812c0.905,1.851,0.785,2.235,0.145,2.303          c-0.58,0.055-1.508-0.317-1.396,0.313c-1.178-1.131-1.979-2.379-2.454-3.596c-0.445-1.206-0.678-2.453-0.943-3.565          c-0.504-2.257-0.886-4.269-1.586-6.432l1.236,5.478c-0.95-1.938-2.528-6.135-2.989-8.547c0.11,1.084,0.646,3.188,1.43,5.915          c0.403,1.359,0.855,2.879,1.34,4.508c0.485,1.6,0.977,3.444,2.108,5.003c2.124,3.176,5.688,5.616,9.508,6.432          c0.947,0.179,1.953,0.265,2.856,0.265c0.918,0.026,1.816,0.052,2.69,0.078c1.748,0.06,3.395,0.138,4.887,0.239          c2.12-0.329,5.779-0.668,4.048-1.061l-3.775,0.136c-3.47-0.789,7.105-1.091,2.326-1.459          c5.065-0.555,10.742-1.427,17.871-0.981l1.34,1.116c-0.153-0.326-4.66-0.665-6.664-0.325          c2.972-0.495,10.932,1.511,14.188,0.049l-4.999-0.773c5.086-0.561,11.37-1.746,17.688-1.394          c-2.875-1.102-1.455,0.126-5.945-1.164c3.892,1.604-16.163-0.067-9.911,1.619c-4.607-1.497-7.974-0.635-13.996-1.911          c0.186,0.368,2.134,0.704-3.171,0.522c-0.239,0.107-0.805,0.244-1.163,0.324c-0.163-0.012-0.22-0.017-0.359-0.027          c0.106,0.016,0.187,0.027,0.293,0.043c-0.229,0.055-0.249,0.066,0.109,0.015c1.263,0.161,2.287,0.354,2.702,0.56          c-2.632,0.845-11.067,0.819-13.919,1.256c-3.147-0.175,1.315-0.422-0.402-0.815l-4.261,0.654          c-0.162-0.197-0.572-0.41-1.021-0.607c-0.228-0.115-0.472-0.239-0.705-0.357c-0.229-0.139-0.442-0.264-0.61-0.377          c-0.336-0.268-0.49-0.457-0.261-0.523c0.219-0.076,0.863,0.045,1.945,0.003c0,0-0.06-0.002-0.163-0.006          c-0.105-0.008-0.262-0.043-0.446-0.066c-0.371-0.05-0.885-0.186-1.401-0.361c-0.259-0.084-0.515-0.212-0.759-0.301          c-0.238-0.119-0.462-0.23-0.652-0.326c-0.373-0.22-0.622-0.366-0.622-0.366c-1.041-0.911-2.12-2.135-2.817-3.32          c-0.345-0.609-0.57-1.12-0.789-1.682c-0.334-0.982-0.674-1.884-1.006-2.654c-0.774-3.056-3.246-7.313-1.813-4.889          l-3.622-9.833l0.167-0.153c-0.375-1.235-0.776-2.473-1.194-3.714c-0.213-0.62-0.427-1.242-0.641-1.867l-0.504-1.285          c-0.189-0.417-0.402-0.817-0.609-1.222c-1.775-3.157-4.364-5.523-7.367-7.232c-1.51-0.848-3.147-1.526-4.921-1.962          c-0.887-0.216-1.808-0.372-2.76-0.444l-0.72-0.039l-0.354-0.016l-0.266-0.004l-1.064-0.022          c-2.847-0.073-5.743-0.258-8.695-0.627c-3.477,0.206-7.069,0.458-12.886,0.226l-1.133-0.707          c-4.464,0.247-13.404-0.707-15.322,0.029c-2.408-0.951-7.824-1.055-13.619-0.963c-6.07,0.135-12.535,0.278-16.648,0.37          c0,0-0.076,0.244-0.153,0.487c-0.07,0.244-0.141,0.487-0.141,0.487c-3.761,0.602-6.925,2.294-9.625,4.762          c-1.342,1.25-2.569,2.727-3.572,4.518c-0.496,0.898-0.953,1.861-1.285,2.934c-0.08,0.251-0.185,0.565-0.239,0.771          l-0.15,0.589c-0.101,0.396-0.203,0.797-0.307,1.204l0.902-0.149c-0.547,2.859-1.799,6.362-3.247,10.243          c-0.721,1.942-1.479,3.982-2.256,6.074c-0.369,1.052-0.743,2.117-1.118,3.188l-0.536,1.621l-0.253,0.779          c-0.066,0.169-0.128,0.34-0.184,0.513c-0.229-0.177,0.6-2.578,1.258-4.042c-0.314,0.617-0.612,1.244-0.894,1.881          l-0.412,0.961l-0.198,0.485l-0.146,0.276c-0.369,0.738-0.855,1.504-1.456,2.25c-1.194,1.492-2.862,2.889-4.655,3.692          c-0.446,0.203-0.899,0.367-1.347,0.486c-0.222,0.048-0.452,0.132-0.668,0.148c-0.242,0.028-0.374,0.08-0.778,0.095          c-1.387,0.089-2.759,0.163-4.109,0.203c-2.702,0.081-5.318,0.028-7.795-0.308c-2.47,0.297-4.258,0.196-5.989-0.009          c0.229-0.002,0.436-0.017,0.611-0.042c-0.252-0.011-0.628-0.012-1.014-0.011c-1.09-0.14-2.213-0.303-3.43-0.434          c1.034,0.198,2.024,0.362,2.885,0.438c-1.904,0.017-4.792,0.118-7.625,0.322l-1.207-0.876          c-0.229,0.009-0.415,0.016-0.655,0.025c-2.778-0.324-2.233,0.415-0.751,1.074c-1.426,0.144-2.732,0.317-3.746,0.528          c-2.257-1.414-7.428,0.477-10.509-1.032c-1.908,0.736-14.235,0.554-15.744,2.102c-0.097-0.201-0.931-0.297,0.598-0.311          c-0.79-0.041-1.579-0.082-2.362-0.123c-0.392-0.015-0.783-0.029-1.171-0.043l-0.582-0.014          c-0.197-0.003-0.468,0.011-0.697,0.02c-1.913,0.075-3.758,0.696-5.17,1.71c0,0-0.481-0.038-0.996-0.05          c-0.518-0.025-1.031,0.029-1.031,0.029s-0.1,0.104-0.275,0.286c-0.179,0.176-0.414,0.448-0.673,0.789          c-0.55,0.65-1.134,1.623-1.605,2.605c-0.439,1.008-0.759,2.03-0.883,2.815c-0.157,0.774-0.166,1.294-0.166,1.294          c-0.259,0.573-0.398,1.138-0.559,1.654c-0.11,0.52-0.21,0.988-0.297,1.395c-0.146,0.687-0.286,1.166-0.431,1.385          c-0.146,0.219-0.296,0.177-0.465-0.18c-0.084-0.178-0.172-0.436-0.267-0.778c-0.046-0.178-0.098-0.347-0.144-0.595          c-0.039-0.291-0.076-0.616-0.108-0.976c0.02,0.409,0.03,0.9,0.068,1.188c0.037,0.291,0.072,0.571,0.106,0.841          c0.064,0.54,0.124,1.038,0.179,1.501c0.098,0.926,0.18,1.709,0.252,2.393c0.129,1.368,0.191,2.339,0.252,3.264          c0.123,1.849,0.244,3.51,0.897,7.779l-0.72-0.416c0.028,3.051,0.993,7.93,0.397,9.771          c-1.37,6.827-0.189,33.782-1.462,51.308c2.121-3.4-0.951,8.146,0.693,8.841c-0.501,1.02-0.785,3.463-1.221,0.624          c0.493,8.944-0.796,13.438,0.591,19.613c-0.504,1.023-0.736-1.914-1.033-1.004c0.108,0.718,0.437,2.842,0.137,3.772          c-0.299,0.91-0.421-1.31-0.641-2.726c0.085,9.137,1.631,10.061,3.083,10.726c-0.688,4.63-0.59,6.939,0.362,10.283          c-0.475,1.612-0.972,4.301-1.143-1.376c-0.069,3.194-0.696,19.51,0.468,19.835c-0.295,1.001-0.086,4.464,0.048,5.305          c-0.048,3.583-0.074,5.532-0.1,7.466c-0.003,0.967-0.007,1.929-0.011,3.09c0.004,0.58,0.009,1.21,0.015,1.914          c0.013,0.713-0.005,1.414,0.089,2.587c0,0,0.019-0.6,0.038-1.198c0.047-0.488,0.095-0.976,0.095-0.976          c0.176,0.35,0.31,0.693,0.418,1.066c0.129,0.425,0.206,0.853,0.307,1.288c0.221,0.867,0.389,1.797,0.753,2.789          c0.348,0.988,0.81,2.078,1.599,3.141c0.777,1.063,1.854,2.126,3.321,2.928l-0.238,0.024c1.598,1.105,3.151,1.611,4.427,1.84          c0.631,0.139,1.237,0.146,1.722,0.189c0.424,0.012,0.799,0.021,1.133,0.031c1.337,0.02,2.034-0.036,2.725-0.088          c1.382-0.104,2.742-0.189,9.159,0.389l-0.698-0.873c1.197-1.877,11.37,1.107,18.819,0.39l-2.689-0.499          c4.068-0.643,11.37,2.554,15.455,2.788c0.891,0.163-1.406,0.262-2.649,0.383c10.696,1.107,1.386-1.144,9.356-1.409          c1.469,0.616-1.895,1.568,3.47,1.683c2.672,0.5,15.558-2.002,22.876-0.819c-1.612-0.476-3.214-0.949,0.489-1.307          c5.673-0.17,15.338,1.797,20.463,0.298c0.721,0.13,0.994,0.255,1.024,0.373c4.337-0.387,14.095-0.643,16.708-1.455          c4.008,3.016,26.965-1.466,26.868,1.314l13.341-0.148l-0.349,0.283c8.528,0.185,11.543-0.481,14.541-1.15          c1.971,0.189,0.531,0.449,0.368,0.596c12.461,0.561,13.7,0.442,24.146-0.942l1.087,0.901          c2.832-0.524,18.014,1.414,30.235,0.362c-0.12,0.103-0.372,0.277-1.343,0.404c6.875-0.529,15.104,0.097,22.244,0.443          c3.57,0.174,6.868,0.278,9.589,0.134c1.36-0.072,2.576-0.207,3.609-0.426c1.356-0.238,2.527-0.707,3.198-1.321          c0-0.001,0.716-0.201,1.704-0.681c0.981-0.485,2.213-1.27,3.236-2.264c1.037-0.982,1.832-2.161,2.326-3.078          c0.245-0.463,0.436-0.851,0.537-1.139c0.111-0.281,0.175-0.442,0.175-0.442c-0.784,1.604-1.639,2.611-2.317,3.226          c-0.672,0.624-1.139,0.915-1.398,1.023c-0.541,0.193-0.201-0.227,0.193-0.879c0.429-0.623,0.887-1.487,0.979-1.948          c0.092-0.47-0.062-0.462-0.961,0.38c0.751-0.901,1.499-2.021,2.024-3.191c0.525-1.166,0.867-2.359,1.014-3.259          c0.178-0.886,0.313-1.386,0.451-1.354c0.065,0.02,0.125,0.181,0.174,0.515c0.056,0.311,0.076,0.869,0.046,1.686          l-0.314,0.964c0.283,0.664,0.76,0.015,1.017-1.504c0.025-0.189,0.053-0.391,0.082-0.602c0.015-0.178,0.03-0.364,0.047-0.558          c0.021-0.384,0.046-0.798,0.07-1.232c0.027-0.87,0.056-1.823,0.086-2.79c0.083-3.868,0.099-7.957,0.682-7.799          c-0.084-23.099,0.863-45.613,0.937-67.25l-1.331,2.492l0.076-7.548c0.31-1.98,1.041-2.659,0.986,2.726          c0.755-2.832-0.632-9.03-0.921-9.184c0.539-10.542,1.552,4.118,1.583,0.885l-0.099-4.391l-0.155,0.99          c-0.544-3.56-1.121-3.875-1.055-10.347c0.266-4.095,0.82-2.101,0.872-3.712c0.094,0.01,0.139-0.535,0.038-2.473l0.114-9.509          l-1.052,3.802c-0.518-4.214,0.056-8.941-1.136-4.554c0.229-0.805,0.412-1.963,0.557-3.381          c0.072-0.709,0.136-1.483,0.19-2.31c0.024-0.414,0.05-0.841,0.075-1.28c0.012-0.199,0.022-0.402,0.034-0.606l0.03-0.091          c0.157-0.493,0.2-1.076,0.203-1.647c0.007-1.144-0.146-2.247,0.14-2.511c-0.767-0.789-0.753-1.568-0.66-2.533          c-0.22,0.24-1.4,0.383-1.256-0.449c2.438,0.304,1.058-1.524,2.813-2.197c-1.163,0.601-0.287-2.366-1.939-1.423          c0.197-0.694,0.913-0.042,1.487-0.569c-0.945-1.653,0.613-3.643,0.295-5.686c-0.32-0.032-0.81,0.31-1.286-0.128l1.6-1.079          c-0.156-0.403-1.847-0.371-0.735-1.108c-0.27,0.104-0.676,0.259-0.778-0.011c1.56-4.002-1.277-8.179,1.653-12.244          c-0.62,0.551-0.682,0.184-0.705-0.237c-0.148,0.273-0.79-0.006-1.225,0.047l1.205-1.702          c-1.204-0.31-0.082-1.824-1.232-2.002l0.207,0.539c-1.358-0.717-3.02,1.002-4.764,0.898          c1.545,0.802-2.287,2.116-0.076,3.432c-0.355,0.291-0.562-0.248-0.966-0.092c0.747,0.333,0.903,0.737,0.568,1.484          l-0.186-0.084c0.183,2.098-0.555,2.998-1.045,5.355l0.862-0.175c-0.115,0.507-0.386,0.613-0.602,0.851          c1.307,0.581,0.073-1.423,1.515-0.893c-1.754,0.672-0.026,3.572-2.02,4.026c-0.011,0.779,0.998-0.229,0.986,0.55          l-0.539,0.207l0.695,0.197c-0.115,0.511-0.79,0.769-1.247,0.788c0.055-0.124-0.128-0.353-0.167-0.485          c-0.635,0.663,0.217,1.868,0.01,2.096l0.333-0.749c0.505,2.126-0.204,4.724,0.893,6.778l0.407-0.156          c0.753,1.569-0.446,1.256-0.099,2.979l-0.097-0.063c0.405,0.345,0.609,0.805,0.563,1.277          c-0.477-0.435-0.926,0.818-1.454,0.248c0.809,1.702,0.636,0.842,2.147,1.965l-0.675,0.259          c0.61,0.383,0.933,0.415,1.106,1.275c-0.579-0.706-1.028,0.549-1.794-0.242c-0.737,0.903-0.365,1.573-0.078,2.121          c0.144,0.274,0.266,0.518,0.218,0.744c-0.024,0.113-0.092,0.223-0.22,0.33c-0.032,0.026-0.068,0.053-0.108,0.08          l-0.063,0.039l-0.07,0.292c-0.097,0.392-0.212,0.78-0.347,1.167c0.467,1.551,0.766,1.596,0.956,0.845          c0.096-0.375,0.165-0.949,0.214-1.633c0.012-0.171,0.022-0.349,0.034-0.533l0.008-0.138l0.007-0.019l0.013-0.038          c0.016-0.052,0.028-0.105,0.038-0.16c0.075-0.437-0.032-0.918,0.168-0.686c0.305-0.194,0.654-0.023,0.903,0.267          c0.125,0.146,0.225,0.32,0.281,0.495c0.014,0.043,0.025,0.087,0.034,0.13c0.006,0.297,0.011,0.59,0.017,0.876          c0.005,0.619-0.004,1.208-0.027,1.738c-0.042,4.314-2.389,7.335-2.354,18.187c0.008-1.08-0.133-1.153-0.125-2.23          c-0.477,4.062,0.646,7.957-0.129,12.939c1.13,2.792-0.064,6.468,1.376,7.271l-0.333-9.954          c0.376,5.644,2.063,10.935,1.245,20.231c-0.291-0.725-0.673-3.49-0.887-5.392c-0.425,2.719,0.282,5.235-0.155,8.054          c-1.441-0.805-0.313-12.099-1.412-18.144c-0.608,2.918,1.044,11.437-0.518,8.398c1.986,4.367-0.25,10.692,1.266,18.041          l-0.863-0.485c0.136,1.163,0.543,3.572,0.521,5.713l-1.12-3.875c0.956,5.949-0.835,11.47-0.315,17.177          c-0.026-11.949,1.04-2.683,1.672-7.734c1.155,14.737-2.26,8.476-1.846,24.974c-0.122-2.233,0.519-8.386,0.919-4.893          c-0.178,3.141-0.51,7.289-0.962,9.217c0.179,10.932,0.888-1.679,1.419,2.975c-1.053,3.723,0.428,5.367,0.766,10.16          l-0.879,0.033c-0.563,12.457,1.83,3.304,1.149,14.518l-1.218-4.739c0,0,0.078,1.462,0.157,2.923          c0.039,0.731,0.079,1.462,0.108,2.01c0.011,0.351,0.018,0.585,0.018,0.585c-0.005-0.026-0.954-0.744-0.967-0.878          c0.019,0.156,0.036,0.309,0.054,0.458c0.017,0.104,0.032,0.207,0.048,0.308c0.034,0.204,0.012,0.395,0.029,0.588          c-0.014,0.377-0.061,0.731-0.149,1.059c-0.179,0.653-0.482,1.2-0.866,1.675c-0.793,0.91-1.932,1.629-3.666,1.77          c0.442,0.246,0.463,0.651-0.216,1.07c-0.184,0.084-0.356,0.179-0.673,0.258c-0.377,0.069-0.807,0.132-1.29,0.185          c-0.965,0.104-2.141,0.171-3.521,0.178c-3.763-0.521,2.107-0.835-5.713-0.709c1.765-0.55,3.699-1.239,7.103-0.43          c0.349-0.287,1.741-0.552,2.101-0.834c-4.052-0.6-10.184-0.137-13.016-0.129c1.09,0.032,2.393,0.08,3.062,0.205          l-11.337,1.217c-1.785-0.33-0.369-0.595,1.033-0.854c-2.297,0.095-3.886,0.498-7.262,0.573          c0.874-0.714,0.664-1.45,5.443-1.786l-10.802,0.792c-0.721-0.311-5.544-0.853-4.141-1.115          c-5.989-0.42-14.69,1.385-22.631,0.831c-0.412,0.138-1.24,0.271-2.929,0.373c-7.461-0.161-14.072-1.037-22.916-0.059          l-5.019-1.279c-6.927,0.29,6.793,1.611-4.739,2.094c-8.167,0.408-3.048-1.091-5.913-1.447          c-4.062,0.645-11.121,1.957-18.622,0.915C266.595,363.17,268.542,363.359,270.862,363.265z M185.435,363.831          c1.655-0.184,4.956-0.752,6.165-0.234C189.716,364.603,188.257,364.121,185.435,363.831z M117.026,303.925          c0.291,1.229,0.147,3.134-0.186,5.281C116.769,307.647,116.801,305.882,117.026,303.925z M314.835,175.234          c-0.042-0.029-0.072-0.05-0.113-0.069c-0.326-0.565-0.492-0.939-0.572-1.159c-0.091-0.217-0.118-0.278-0.091-0.224          C314.115,173.889,314.33,174.481,314.835,175.234z M319.076,178.857c0.567,0.098,0.563-0.032,0.396-0.236          c-0.42,0.084-1.622-0.395-2.76-1.323C316.902,177.684,317.427,178.387,319.076,178.857z M398.828,249.271l-0.229,1.492          C398.347,247.393,398.575,248.337,398.828,249.271z" style="fill:#202020;"/><path d="M118.228,318.648c-0.148,0.469-0.313,0.598-0.477,0.708          C117.898,320.008,118.069,320.021,118.228,318.648z" style="fill:#202020;"/><path d="M323.99,362.803l0.26,0.011c0.143-0.053,0.219-0.106,0.263-0.158L323.99,362.803z" style="fill:#202020;"/><path d="M224.157,144.475c-0.79-0.063-1.404-0.135-1.895-0.212c-0.246-0.039-0.459-0.078-0.649-0.118          c-0.188-0.04-0.266-0.068-0.384-0.106c-0.002,0.112,0.036,0.195,0.468,0.269          C222.168,144.386,222.951,144.446,224.157,144.475z" style="fill:#202020;"/><path d="M358.107,178.066l-4.913,0.228c2.377-0.043,3.225,0.148,4.424,0.288          C357.509,178.377,356.571,178.081,358.107,178.066z" style="fill:#202020;"/><path d="M376.817,183.499c0.096-0.107,0.203-0.012,0.298-0.121l-0.026-0.408          C376.681,182.997,376.395,183.326,376.817,183.499z" style="fill:#202020;"/><path d="M362.653,180.983c0.39,0.739,3.471,0.488,6.91,0.352c-0.206,0.002-0.402,0.009-0.608,0          C369.969,180.3,366.303,180.643,362.653,180.983z" style="fill:#202020;"/><path d="M370.361,181.309c0.53-0.012,1.066-0.023,1.599-0.035h0.797l0.372,0.006l0.053,0.011          c0.014-0.104,0.01-0.161-0.008-0.187c-0.009-0.013-0.021-0.018-0.036-0.017c-0.092,0.005-0.202,0.011-0.326,0.019          C372.202,181.148,371.307,181.256,370.361,181.309z" style="fill:#202020;"/><path d="M327.2,179.068c1.632,0.19,1.024-0.944,1.948-0.644          C330.97,177.484,318.27,179.563,327.2,179.068z" style="fill:#202020;"/><polygon points="365.439,183.417 364.206,182.505 362.278,183.24         " style="fill:#202020;"/><path d="M338.275,182.747l5.497,0.252c-0.083-0.153,0.614-0.243,1.472-0.311          C341.857,182.658,338.146,182.478,338.275,182.747z" style="fill:#202020;"/><path d="M345.244,182.688c1.766,0.019,3.443-0.001,4.424-0.151          C348.715,182.547,346.66,182.577,345.244,182.688z" style="fill:#202020;"/><polygon points="357.924,183.69 356.299,183.5 352.417,183.433         " style="fill:#202020;"/><path d="M302.191,148.738c0,0-0.726-1.449-1.775-2.634c-0.511-0.601-1.077-1.145-1.512-1.537          c-0.449-0.375-0.748-0.625-0.748-0.625c-0.695-0.141,0.538,0.979,2.023,2.681c0.521,0.52,1.1,1.269,1.475,1.805          C302.017,148.967,302.266,149.246,302.191,148.738z" style="fill:#202020;"/><path d="M305.388,166.861c-0.306-1.604-0.144-1.77-0.132-2.731l-1.133,0.164L305.388,166.861z" style="fill:#202020;"/><path d="M299.901,150.392c-0.103-0.091-0.41-0.52-0.771-0.999c-0.375-0.478-0.847-0.988-1.211-1.306          c-0.374-0.313-0.592-0.463-0.477-0.241c0.092,0.229,0.651,0.778,1.342,2.083c0.104,0.074,0.377,0.374,0.581,0.759          c0.109,0.208,0.22,0.357,0.34,0.633c0.122,0.26,0.237,0.507,0.332,0.71c0.198,0.404,0.338,0.625,0.34,0.413          c0.001-0.106-0.033-0.322-0.11-0.677c-0.042-0.177-0.092-0.39-0.151-0.642C300.054,150.881,299.983,150.675,299.901,150.392          z" style="fill:#202020;"/><path d="M215.43,143.083c0,0,0.316-0.191,0.651-0.349c0.328-0.17,0.665-0.321,0.665-0.321          s-0.236-0.404-0.473-0.808c-0.242-0.399-0.484-0.799-0.484-0.799s-0.131,0.583-0.22,1.148          C215.47,142.513,215.43,143.083,215.43,143.083z" style="fill:#202020;"/><path d="M160.658,188.337c7.109,0.444,1.688-1.144,8.113-0.589c1.668-0.439-5.251-0.453-3.54-0.831          C160.94,187.379,158.687,187.118,160.658,188.337z" style="fill:#202020;"/><path d="M165.231,186.917c0.688-0.073,1.416-0.162,2.19-0.282          C166.179,186.751,165.594,186.84,165.231,186.917z" style="fill:#202020;"/><polygon points="399.77,195.105 400.155,194.494 399.533,194.889         " style="fill:#202020;"/><path d="M398.395,193.932l1.182-0.144l-1.069-0.367C398.56,193.559,398.661,193.827,398.395,193.932z          " style="fill:#202020;"/><path d="M172.735,361.451l-0.349,0.285c0.708,0.307,1.778,0.33,3.922,0.379L172.735,361.451z" style="fill:#202020;"/><polygon points="234.738,362.336 233.671,362.312 235.665,363.381         " style="fill:#202020;"/><path d="M286.776,360.974c-2.124-0.045-4.62,0.194-6.754,0.148          C284.652,360.929,287.351,362.306,286.776,360.974z" style="fill:#202020;"/></g></g></g></g></g><g><g><g><g><path d="M255.009,223.021c0.297,0.052,0.19-0.705,0.235-0.844         C254.74,222.369,255.024,223.219,255.009,223.021z" style="fill:#202020;"/><path d="M250.279,224.992l0.054-0.314c0,0-0.156,0.201-0.312,0.401         c-0.152,0.215-0.304,0.431-0.304,0.431s0.139-0.135,0.278-0.27C250.135,225.105,250.279,224.992,250.279,224.992z" style="fill:#202020;"/><path d="M245.886,225.625c0.641,1.215,1.548-0.451,2.407-0.114l0.168,0.274l0.216-1.09         C247.73,225.005,246.615,225.879,245.886,225.625z" style="fill:#202020;"/><path d="M242.93,223.392c0.265,0.455-0.423,0.558,0.6,0.011c-0.067-0.04-0.09-0.067-0.13-0.098         C243.303,223.336,243.167,223.369,242.93,223.392z" style="fill:#202020;"/><path d="M243.399,223.304C243.87,223.146,242.991,222.969,243.399,223.304L243.399,223.304z" style="fill:#202020;"/><path d="M241.267,224.149l0.513-0.598c-0.206-0.255-0.791-0.173-0.636-0.438         C240.554,223.522,240.774,223.771,241.267,224.149z" style="fill:#202020;"/><path d="M240.933,225.216l0.268-0.267C241.111,224.843,241.014,224.823,240.933,225.216z" style="fill:#202020;"/><path d="M241.776,224.384l-0.576,0.565c0.146,0.179,0.264,0.583,0.273-0.221         C241.52,225.114,241.555,224.723,241.776,224.384z" style="fill:#202020;"/><path d="M242.212,224.476c0.418,0.184,0.9,0.244,0.396,0.838         C243.729,224.842,243.36,223.993,242.212,224.476z" style="fill:#202020;"/><path d="M245.914,226.979l0.513,0.306l0.307-0.487C246.581,227.04,245.812,226.584,245.914,226.979z" style="fill:#202020;"/><path d="M237.204,224.718c0.055,0.274,0.451,0.62,0.612,0.937l0.343-0.462         C237.868,225.097,237.372,225.092,237.204,224.718z" style="fill:#202020;"/><path d="M237.816,225.655l-0.503,0.689C237.92,226.181,237.954,225.929,237.816,225.655z" style="fill:#202020;"/><polygon points="241.221,226.631 242.053,225.386 241.016,226.699        " style="fill:#202020;"/><polygon points="234.597,225.642 234.742,224.906 234.424,226.054        " style="fill:#202020;"/><path d="M232.975,226.499c0.057-0.615-0.751-0.634-0.594-1.071c-0.42,0.306-0.616,0.905-0.782,1.44         C231.866,226.485,232.29,226.346,232.975,226.499z" style="fill:#202020;"/><path d="M231.286,227.681c0.125-0.202,0.212-0.497,0.313-0.814         C231.458,227.071,231.344,227.322,231.286,227.681z" style="fill:#202020;"/><path d="M236.14,226.629c-0.112-0.137-0.37-0.508-0.815-0.54l0.551,0.625         C235.956,226.689,236.047,226.66,236.14,226.629z" style="fill:#202020;"/><path d="M235.894,226.734l-0.018-0.02c-0.291,0.084-0.492,0.143-0.578,0.167         C235.373,226.864,235.552,226.819,235.894,226.734z" style="fill:#202020;"/><path d="M236.207,226.609c-0.024,0.007-0.042,0.013-0.067,0.021         C236.193,226.691,236.217,226.71,236.207,226.609z" style="fill:#202020;"/><path d="M239.29,226.469c-0.252,0.553-0.874,1.277,0.089,1.631         C239.479,227.497,238.922,227.298,239.29,226.469z" style="fill:#202020;"/><path d="M236.876,227.398l0.75-0.086c-0.083-0.188-0.313-0.423-0.196-0.696L236.876,227.398z" style="fill:#202020;"/><polygon points="236.628,227.752 236.876,227.398 236.597,227.431        " style="fill:#202020;"/><path d="M232.772,227.772c-0.148,0.446-0.452,0.625-0.787,0.848c0.452-0.049,0.882-0.166,1.258-0.348         C233.193,228.025,233.176,227.547,232.772,227.772z" style="fill:#202020;"/><path d="M234.299,227.279c-0.015,0.022-0.033,0.05-0.047,0.072         C234.318,227.392,234.359,227.396,234.299,227.279z" style="fill:#202020;"/><polygon points="228.544,230.484 228.67,230.573 228.614,230.45        " style="fill:#202020;"/><path d="M233.369,228.373c0.35-0.002,0.441-0.256,0.507-0.555c-0.184,0.175-0.391,0.331-0.632,0.454         C233.266,228.384,233.293,228.452,233.369,228.373z" style="fill:#202020;"/><path d="M230.451,228.491c0.228,0.069,0.464,0.108,0.703,0.134         C230.894,228.477,230.41,228.285,230.451,228.491z" style="fill:#202020;"/><path d="M234.068,227.2c0.009-0.019,0.017-0.038,0.029-0.053         C233.935,227.041,233.98,227.109,234.068,227.2z" style="fill:#202020;"/><path d="M234.068,227.2c-0.105,0.175-0.145,0.406-0.192,0.618c0.151-0.14,0.28-0.294,0.376-0.467         C234.194,227.317,234.125,227.258,234.068,227.2z" style="fill:#202020;"/><path d="M230.174,235.336c-0.344-0.634-0.015-1.614,0.949-1.296c0.29-0.808-1.238-2.653-2.453-3.467         c0.143,0.282,0.286,0.535-0.109,1.273c0.427,0.201,1.823-0.029,1.641,0.843c-0.6,0.799-0.777,0.173-1.367,0.086         c0.794,0.569-0.311,1.72,0.582,2.722l0.42-0.799C229.957,234.865,229.89,235.29,230.174,235.336z" style="fill:#202020;"/><path d="M229.904,229.913l0.215-0.234c-0.356,0.068-0.706-0.057-1.383-0.307         c-0.263,0.57-0.214,0.854-0.122,1.079l1.326-0.685L229.904,229.913z" style="fill:#202020;"/><path d="M231.331,229.066c0.144,0.802-0.333,1.404,0.452,1.965c0.744-0.42,0.239-0.843,0.554-1.374         c-1.181,0.787,0.17-0.568-0.955-0.517c0.192-0.241,0.403-0.388,0.604-0.521c-0.275,0.027-0.554,0.03-0.833,0.005         c0.02,0.011,0.035,0.019,0.052,0.028l0.005-0.005l0.004,0.012c0.101,0.06,0.146,0.104,0.058,0.084         c0,0.011-0.014,0.022-0.02,0.027c0.041,0.102,0.061,0.198,0.077,0.292c-0.448,0.038-0.153-0.152-0.077-0.292         c-0.013-0.036-0.02-0.074-0.038-0.111l-0.009-0.007c0,0-1.106,0.996-1.086,1.026         C230.428,229.61,230.769,229.447,231.331,229.066z" style="fill:#202020;"/><path d="M239.249,229.943c-0.062-0.051-0.079-0.104-0.1-0.157         C239.1,229.906,239.091,229.979,239.249,229.943z" style="fill:#202020;"/><path d="M238.574,229.686c0.054-0.136,0.024-0.46,0.352-0.493c0.337,0.127,0.123,0.355,0.223,0.594         c0.106-0.261,0.446-0.763-0.248-0.915l-0.055,0.134c-0.597-0.068-1.613-0.738-1.562-0.871         C237.688,228.737,238,229.159,238.574,229.686z" style="fill:#202020;"/><path d="M235.048,229.417l-0.875,0.847l0.804,0.366l-0.194-0.359         C235.429,230.138,235.101,229.739,235.048,229.417z" style="fill:#202020;"/><polygon points="228.227,230.221 227.941,229.425 227.946,230.791        " style="fill:#202020;"/><polygon points="226.941,231.12 226.604,230.481 226.482,231.065        " style="fill:#202020;"/><path d="M284.541,308.153l0.293-0.542C284.674,307.843,284.589,308.013,284.541,308.153z" style="fill:#202020;"/><path d="M281.246,310.788l0.128,0.348C281.415,310.859,281.393,310.697,281.246,310.788z" style="fill:#202020;"/><path d="M207.336,297.506c-0.172,1.195-0.589,2.727,0.078,2.246l0.567-0.64         C207.543,298.531,207.383,297.995,207.336,297.506z" style="fill:#202020;"/><path d="M247.959,323.009c-0.075-0.09-0.153-0.185-0.231-0.278c-0.268,0.233-0.519,0.452-0.746,0.65         C247.277,323.269,247.61,323.142,247.959,323.009z" style="fill:#202020;"/><path d="M249.058,319.872l1.072,0.682C249.893,320.337,249.548,320.111,249.058,319.872z" style="fill:#202020;"/><path d="M296.177,288.79c0,0-0.134-0.216-0.267-0.433c-0.134-0.215-0.295-0.435-0.296-0.435         C295.312,288.898,295.818,288.59,296.177,288.79z" style="fill:#202020;"/><path d="M207.199,254.505c-0.69,0.656-1.006,1.292-1.269,1.854c0.396-0.419,0.824-0.759,1.089-1.059         C207.311,255.013,207.441,254.765,207.199,254.505z" style="fill:#202020;"/><path d="M288.687,315.704c0.224-0.395,0.253-0.638,0.129-0.763         C288.582,315.335,288.495,315.616,288.687,315.704z" style="fill:#202020;"/><path d="M205.052,258.764c0.128-0.121,0.218-0.252,0.336-0.379c0.096-0.65,0.221-1.301,0.542-2.025         C205.343,256.973,204.83,257.771,205.052,258.764z" style="fill:#202020;"/><path d="M270.673,234.819c-0.016-0.043-0.044-0.072-0.056-0.121         C270.57,234.796,270.608,234.815,270.673,234.819z" style="fill:#202020;"/><path d="M259.441,224.188c0.146-0.041,0.379-0.03,0.599-0.029         C259.938,224.1,259.759,224.096,259.441,224.188z" style="fill:#202020;"/><path d="M217.488,238.271C217.9,237.748,217.496,238.132,217.488,238.271L217.488,238.271z" style="fill:#202020;"/><path d="M221.933,238.408c-0.039,0.155-0.037,0.307,0.073,0.452         C221.916,238.685,221.899,238.537,221.933,238.408z" style="fill:#202020;"/><path d="M208.131,266.086c-0.004,0.018-0.006,0.031-0.011,0.051         C208.299,265.991,208.265,266.016,208.131,266.086z" style="fill:#202020;"/><path d="M218.455,237.838c-0.246,0.101-0.525,0.224-0.778,0.411         C217.806,238.185,218.059,238.075,218.455,237.838z" style="fill:#202020;"/><path d="M218.096,237.661c0.19-0.133,0.339-0.237,0.48-0.336         C218.547,237.174,218.435,237.165,218.096,237.661z" style="fill:#202020;"/><path d="M216.895,238.981c0.247-0.288,0.512-0.523,0.782-0.733c-0.125,0.058-0.194,0.067-0.189,0.023         C217.363,238.421,217.187,238.632,216.895,238.981z" style="fill:#202020;"/><path d="M293.642,250.773c0.002-0.046-0.008-0.092-0.001-0.145         C293.069,250.315,293.243,250.502,293.642,250.773z" style="fill:#202020;"/><path d="M222.821,306.023c-0.023-0.014-0.048-0.01-0.07-0.021c0.011,0.025,0.025,0.057,0.035,0.08         L222.821,306.023z" style="fill:#202020;"/><path d="M224.612,307.042c-1.334,0.158-1.529-0.361-1.826-0.96c0,0-0.301,0.516-0.602,1.03         c-0.295,0.521-0.591,1.043-0.591,1.043s0.752-0.261,1.504-0.521C223.853,307.356,224.611,307.042,224.612,307.042z" style="fill:#202020;"/><path d="M291.05,300.472l-1.395,0.675c0.049-1.982,1.014-2.657-0.524-2.233         c0.966,0.77,0.23,1.848-0.495,2.931c-0.182,0.271-0.363,0.542-0.519,0.811c-0.175,0.254-0.335,0.495-0.436,0.74         c-0.203,0.485-0.198,0.962,0.229,1.41l-0.993,0.319c0.191-0.175,0.112-0.304,0.301-0.476         c-1.021,0.245-0.903,0.782-0.773,1.459c0.148,0.688,0.258,1.464-0.73,2.117c-0.73,0.408-1.378,0.513-1.173-0.071         l-0.917,1.665c-0.438,0.29-0.594-0.105-0.184-0.415c0,0.001-0.107,0.136-0.303,0.299c-0.192,0.167-0.449,0.389-0.707,0.61         c-0.515,0.447-1.03,0.894-1.03,0.894l-0.026-0.07c-0.077,0.542-0.445,1.568-0.657,2.046         c-0.778,0.113,0.145-0.418-0.184-0.574c0.031,0.035-0.969,1.321-0.969,1.321c-0.887-0.236-0.102-1.356,0.78-1.895         c-1.247-0.575-1.442-0.355-1.716,0.165c-0.274,0.498-0.692,1.231-2.325,1.388l1.031-0.999         c-0.742-0.368-1.264-0.311-1.821-0.151c-0.554,0.161-1.205,0.315-2.071,0.263c0.261,0.129,1.191,0.293,1.947,0.565         c0.741,0.255,1.292,0.604,0.729,1.278c-0.507,0.035-1.082,0.212-1.661,1.043c-0.392-0.786-1.06-0.225-2.001,0.29         l-0.396-1.101c-0.902,0.746-0.615,1.227-1.06,1.96c-1.261,0.339-1.803-0.421-2.319-1.039         c-1.943,0.523,1.778,0.886-0.426,1.928c-0.899-0.002-1.596,0.184-2.308,0.522c-0.355,0.17-0.715,0.378-1.103,0.619         c-0.194,0.124-0.396,0.252-0.608,0.387c-0.215,0.122-0.444,0.233-0.687,0.36c-1.276-0.214,0.08-0.732-0.411-0.995         l-0.902,1.076c-0.266,0.018-0.224-0.277-0.203-0.426c-0.845,0.493,0.106,1.16-1.299,1.696         c-0.117,0.672-0.931,0.34-1.892-0.093c-0.965-0.4-2.044-0.771-2.928,0.005c-0.444-0.307,0.203-0.725,0.06-1.168         c-0.597,0.29-1.032,0.435-1.374,0.536c-0.343,0.112-0.593,0.196-0.832,0.291c-0.479,0.19-0.899,0.426-1.974,1.016         c0,0-0.421-0.212-0.842-0.423c-0.209-0.103-0.417-0.21-0.568-0.314c-0.152-0.097-0.254-0.16-0.254-0.16         c1.17,1.065-0.535,1.845-2.17,2.455c0.408,0.49,0.77,0.919,1.023,1.136l-2.537,0.243c-0.263-0.233,0.06-0.588,0.537-1.007         c-0.181,0.069-0.353,0.139-0.491,0.207c-0.786-0.556-0.199-1.145,0.51-1.694c0.243,0.28,0.488,0.562,0.727,0.837         c0.698-0.608,1.33-1.303,1.304-1.997c-0.165,0.11-0.465,0.182-0.788,0.198c0.176-0.168,0.294-0.323,0.244-0.448         c-0.058-0.134-0.329,0.085-0.75,0.322l-0.29-1.356l-0.213,0.489c0,0-0.173-0.078-0.433-0.193         c-0.258-0.117-0.605-0.257-0.935-0.465c-0.659-0.382-1.318-0.763-1.318-0.763c-0.582,0.188-1.167,0.414-1.779,0.642         c-0.61,0.226-1.254,0.477-1.91,0.588c-1.319,0.255-2.844,0.404-4.605-0.028c1.175-0.51,0.774-1.348,1.267-2.363         c0.415,1.441,2.651,0.431,4.173,1.258c-0.813-0.435-0.452-0.873-0.183-0.974l-3.265-0.041         c0.415-0.836-0.368-0.836-0.919-1.563c-0.184,1.934-2.588,0.097-4.008,0.034c0.222-0.568,0.794-0.989,2.105-0.194         c-0.45-0.988-1.185-0.715-1.935-0.496c-0.735,0.208-1.514,0.42-1.942-0.523c0.334,0.187,0.464,0.376,0.75,0.186         c-1.041,0.002-2.692-1.502-1.951-1.677l0.329,0.185c-0.524-0.345-1.136-0.845-1.81-1.342         c-0.678-0.492-1.419-0.979-2.147-1.387c-1.396-0.881-2.687-1.535-3.374-1.09c0.12-0.161,1.521-1.14,1.839-1.273         c0,0-0.428,0.052-1.069,0.129c-0.639,0.065-1.539,0.175-2.4,0.207c-1.705,0.058-3.508,0.012-3.508,0.012         c1.251-0.601,2.6-3.824,4.542-2.804c-0.26-0.567-0.572-1.239-1.766-1.852c0.12,0.41-0.774,2.003-1.251,1.659         c0.022-1.048,0.042-1.398-0.015-1.755c-0.052-0.354-0.157-0.736-0.209-1.859c0.135,0.657-1.932,1.374-2.488,0.521         c0.347-0.059,1.629-1.256,2.016-1.104c0,0-0.779-0.186-1.558-0.371c-0.76-0.213-1.5-0.475-1.5-0.475         c0.63,0.328,1.506-0.859,1.727-1.612c-0.212,0.42-1.026-1.761-1.532-2.193l0.112,1.092c-0.6-1.205-1.457-1.493-2.434-1.77         c-0.96-0.278-1.964-0.584-2.534-1.889c0.558,0.146,2.704-0.299,2.417-1.645c-0.59-0.091-1.996-0.268-3.485-0.756         c-1.466-0.487-3.124-1.269-3.796-2.473l0.449-0.653l-1.17-1.808c0.928,0.445,2.415,1.306,3.856,2.142         c1.448,0.844,3.047,1.6,3.919,2.183c0.101-1.103,0.568-0.506,0.006-1.875c0.354-0.659,1.083,0.475,1.259,0.859         c0,0-0.206-0.818-0.411-1.635c-0.124-0.401-0.151-0.83-0.203-1.141c-0.044-0.313-0.074-0.521-0.074-0.521         c-1.137,0.486-1.836-2.205-2.803-1.869l2.164,3.322c-0.564,0.255-1.525-0.01-2.414-0.7c-0.871-0.688-1.738-1.798-1.887-3.097         c0.385-0.737,2.2,0.062,2.607-0.091c-0.474-0.219-1.146-2.184-0.892-2.454l0.804,0.932c0.125-0.711-0.359-1.193-0.766-1.745         c-0.404-0.547-0.759-1.165-0.187-2.047c0.05-0.593,1.489-1.783,0.761-1.842c-1.349,0.96-5.646,1.497-6.729,0.844         c0.041-0.116,0.332-0.983,0.695-1.888c0.322-0.906,0.918-1.845,1.264-2.188c1.145-0.953,2.532,1.546,3.515,0.715         c-0.332-0.037-0.717-0.576-0.838-0.804c0.317-0.604,1.022,0.285,0.938-1.035c-1.227-0.292,0.238-2.694-1.015-0.693         c-0.291-1.346,0.289-1.38,0.491-2.898c-0.872,0.402-2.49-1.766-2.62-3.249c0.297,0.141,0.748-0.089,0.954-0.199         c0.378-1.356,0.832-2.357,1.237-3.331c0.216-0.482,0.382-0.973,0.62-1.471c0.242-0.497,0.477-1.026,0.702-1.632         c0.366-0.127,1.128-1.151,1.447-0.469c-0.081-0.418-0.356-0.889-0.112-1.642c0.81-0.481,0.635-0.076,0.542,0.399         c-0.102,0.478-0.189,0.997,0.603,0.705c-0.3-0.172-0.418-0.758-0.317-1.4c0.077-0.652,0.244-1.413,0.285-2.017         c-1.136-0.165-1.396,2.254-1.278,3.484c-0.716-0.276-1.281-1.023-1.612-2.095c-0.257-1.038-0.25-2.391,0.061-3.849         c0.668-2.236,1.305-0.418,1.291-0.875c1.21-1.737,1.104-2.851,1.064-3.871c-0.071-1.03,0.029-1.897,1.563-3.023         c1.633-0.549,1.588,1.126,2.341,1.298c-0.767,1.651-2.191,1.827-2.769,2.934c0,0,0.293-0.26,0.587-0.52         c0.146-0.128,0.292-0.257,0.401-0.354c0.12-0.088,0.2-0.147,0.2-0.147c-0.067,0.65-0.447,1.811-1.034,2.211         c0.673-0.256,1.553-1.735,2.822-3.258c0.623-0.766,1.208-1.646,1.931-2.341c0.719-0.699,1.438-1.329,2.109-1.766         c0.132-0.634,0.545-1.592-0.043-1.529l-0.58,0.84c-1.208,0.154,0.508-2.179-0.629-1.477c0.247-0.728,0.576-1.453,1.018-2.182         c0.448-0.721,1.048-1.41,1.932-1.909l0.991,0.607c-0.236-0.226-1.383,0.356-1.566,0.983c0.139-0.46,0.949-0.686,1.672-0.994         c0.758-0.271,1.451-0.604,1.363-1.456l-1.586,0.224c0.783-1.26,1.496-3.369,3.219-4.077c-1.322-0.481-0.282,0.306-2.07,0.024         c1.835,0.627-3.805,2.763-1.323,3.01c-0.995-0.199-1.559,0.034-2.097,0.37c-0.553,0.324-1.122,0.699-2.21,0.827         c0.291,0.233,0.938,0.097-0.329,1.007c0.022,0.125-0.004,0.334-0.025,0.462c-0.043,0.023-0.059,0.031-0.096,0.051         c0.034-0.009,0.06-0.017,0.093-0.026c-0.011,0.084-0.007,0.097,0.034-0.01c0.382-0.132,0.734-0.19,0.962-0.121         c0.021,0.573-0.451,1.214-0.876,1.903c-0.423,0.691-0.883,1.349-0.99,1.792c-0.725,0.537-0.063-0.559-0.679-0.465         l-0.321,1.326c-0.688-0.46-2.647,0.904-1.573-0.999c0,0-0.333,0.354-0.665,0.709c-0.301,0.381-0.602,0.763-0.602,0.763         c-1.046,0.626-2.155,1.807-2.454,2.786c-0.702,0.647-0.474,2.461-0.609,1.421l-1.146,2.858l-0.192-0.077         c-0.433,0.616-0.706,1.332-0.945,2.074c-0.248,0.738-0.473,1.495-0.739,2.242c-0.597,1.472-1.055,3.014-2.366,4.371         c-0.076,0.508-0.142,1.025-0.288,1.604c-0.1,0.593-0.262,1.25-0.586,2.035l-0.766,0.139         c-0.044,0.664-0.459,1.572-0.792,2.415c-0.305,0.847-0.445,1.641-0.137,1.979c-1.032,0.535-1.426,2.135-1.527,3.859         c-0.005,1.737,0.192,3.575-0.03,4.734l0.919,0.095c-0.05,1.576,0.336,3.09,0.794,4.991l0.807-0.188         c0.334,0.796,0.397,1.837,0.347,3.035c-0.02,0.598-0.051,1.232-0.046,1.881c-0.001,0.648,0.035,1.311,0.241,1.938         c-0.344-0.106-0.455-0.771-0.319-1.277c-0.611,1.726,0.209,3.303,0.979,4.761c0.366,0.741,0.878,1.414,1.213,2.115         c0.341,0.699,0.547,1.414,0.481,2.205c0.534,0.552,0.576,1.082,0.624,1.604c-0.03-0.059-0.069-0.106-0.115-0.143         c0.021,0.07,0.067,0.168,0.116,0.268c0.007,0.339-0.002,0.698,0.032,1.071c0.05-0.353,0.076-0.677,0.039-0.931         c0.252,0.487,0.705,1.196,1.241,1.836l-0.634,0.701c0.04,0.056,0.062,0.104,0.105,0.161c0.066,0.877,0.65,0.389,1.053-0.291         c0.305,0.301,0.62,0.554,0.932,0.711c-0.963,1.264,1.479,1.56,0.626,3.087c0.456,0.043,1.102,0.837,1.821,1.551         c0.781,0.672,1.649,1.246,2.393,0.954c-0.146,0.14-0.084,0.383-0.349,0.051c0.381,0.805,0.776,1.624,1.587,1.979         l-0.636,1.005c0,0,0.611,0.119,1.221,0.238c0.603,0.107,1.206,0.215,1.206,0.215c0.266,1.303,0.327,1.955-1.104,1.657         c1.45,0.613,1.916,0.939,2.355,1.238c0.467,0.261,0.904,0.495,2.22,0.81l-0.573,0.452c0.658,0.562,2.285,0.734,2.277,1.53         c0.149,0.56,0.707,1.193,1.489,1.911c0.393,0.357,0.843,0.732,1.333,1.122c0.246,0.192,0.496,0.399,0.765,0.591         c0.279,0.177,0.565,0.357,0.857,0.541c1.166,0.738,2.411,1.527,3.626,2.298c1.254,0.708,2.447,1.467,3.449,2.299         c-0.003-1.192,0.398-0.685,0.958-0.159c0.56,0.523,1.259,1.161,1.64,0.426c0.09,0.567,0.657,1.077-0.262,1.205         c1.298,0.203,2.127,0.752,2.937,1.087c0.815,0.304,1.581,0.478,2.607,0.025c0.163,0.563-0.716,0.575-0.537,0.929         c0.231-0.052,0.904-0.218,1.096,0.141c0.188,0.356-0.466,0.314-0.924,0.424c1.314,0.29,2.116,0.083,2.64-0.396         c0.529-0.502,0.78-1.222,1.007-1.92c1.14,0.872,1.828,0.879,2.862,0.073c0.372,0.537,1.068,1.145-0.533,1.074         c0.44,0.079,1.769,0.548,3.048,0.577c1.273,0.087,2.454,0.011,2.514-0.568c0.27,0.309,1.243,0.146,1.475,0.024         c1.99-0.013,2.176,0.072,4.126-0.136l-0.556-0.161c0.66-1.442,1.582-0.35,3.114-0.795l-0.025,0.15         c1.847,0.229,2.228,0.048,2.584-0.112c0.362-0.168,0.712-0.248,2.569-0.158l-0.388-0.802         c-0.053-0.955,0.743-0.874,1.815-0.715c0.535,0.079,1.14,0.178,1.725,0.18c0.572-0.04,1.12-0.191,1.546-0.536l-0.855-0.219         c0.421-0.495,1.349-0.155,2.364,0.269c1.006,0.418,2.115,0.952,2.702,0.816c0.301,0.045-0.264,0.418-0.565,0.64         c3.293-0.238-0.068-1.202,1.876-2.407c0.647,0.373,0.172,1.659,1.636,1.079c0.232,0.027,0.551-0.197,0.93-0.544         c0.189-0.173,0.395-0.377,0.611-0.595c0.205-0.238,0.424-0.491,0.648-0.752c0.905-1.033,1.946-2.053,3.171-2.11         c-0.661-0.151-1.298-0.318-0.606-1.159c0.614-0.51,1.717-0.811,2.754-1.221c1.013-0.434,1.994-0.932,2.021-2.023         c0.234-0.038,0.373,0.005,0.456,0.089c0.647-1.143,2.57-3.124,2.432-4.263c1.452,0.645,2.499-1.048,3.361-2.593         c0.749-1.651,1.342-3.159,2.466-2.341c0,0,0.134-0.195,0.335-0.487c0.19-0.3,0.49-0.668,0.712-1.089         c0.462-0.827,0.923-1.654,0.923-1.654l0.19,0.234c0.71-0.99,1.033-1.759,1.155-2.399c0.11-0.648-0.027-1.2-0.134-1.724         c0.407-0.409,0.465,0.069,0.574,0.178c1.016-1.454,1.541-2.296,1.807-3.157c0.191-0.892,0.131-1.818-0.024-3.408l0.956,0.012         c-0.056-0.23,0.108-0.612,0.39-1.116c0.291-0.502,0.582-1.164,0.936-1.902c0.677-1.479,1.44-3.346,1.113-5.165         c0.095,0.051,0.257,0.15,0.341,0.446c-0.111-1.017,0.073-2.067,0.367-3.128c0.283-1.061,0.518-2.146,0.764-3.163         c0.219-1.019,0.39-1.975,0.252-2.76c-0.181-0.784-0.604-1.394-1.443-1.717l-0.938-2.48c-0.089,3.245-1.445-0.368-1.922,0.989         c-0.141-0.604,0.107-1.421,0.318-1.903c0.222-0.482,0.54-0.638,0.741,0.119c0.006,0-0.143,0.257-0.142,0.257         c1.819,0.395,0.008-4.038,1.174-4.147l-0.191-1.202l-0.278-1.181c-0.174-0.79-0.347-1.578-0.519-2.363         c-0.262-1.597-0.805-3.103-1.219-4.647c-0.383-1.561-1.007-3.018-1.6-4.482c-0.312-0.724-0.576-1.473-0.946-2.161         c-0.375-0.685-0.76-1.362-1.154-2.029l-0.773,1.29l-1.032-1.842c-0.029-0.642,0.475-1.219,1.23,0.125         c0.109-0.546-0.364-1.018-0.889-1.323c-0.558-0.285-1.173-0.397-1.302-0.332c-1.345-2.703,1.964,0.037,1.447-0.707         l-0.837-0.958l0.044,0.32c-1.052-0.499-1.559-0.216-2.6-1.712c-0.521-1.064,0.245-0.977-0.012-1.359         c0.073-0.059,0.002-0.204-0.446-0.55l-1.751-2.094l-0.035,1.522c-1.176-0.522-1.646-1.886-1.676-0.153         c0.01-0.318-0.057-0.704-0.256-1.063c-0.095-0.184-0.21-0.375-0.343-0.569c-0.069-0.096-0.14-0.195-0.212-0.296l-0.108-0.144         l-0.05-0.087c-0.277-0.465-0.706-0.913-1.153-1.322c-0.45-0.406-0.903-0.791-1.274-1.092         c-0.383-0.286-0.651-0.529-0.675-0.726c-1.145,0.1-1.777-0.391-2.537-1.073c0.076,0.33-0.497,1.375-1.094,0.75         c0.819-0.901,0.663-1.371,0.32-1.817c-0.354-0.427-0.866-0.849-0.71-1.781c-0.071,1.318-2.316-1.072-2.298,0.872         c-0.521-0.547,0.425-0.81,0.231-1.598c-0.501-0.015-0.918-0.213-1.348-0.429c-0.429-0.217-0.832-0.52-1.242-0.847         c-0.819-0.653-1.676-1.41-2.735-1.739c-0.155,0.284-0.018,0.879-0.627,1.132c0,0-0.114-0.469-0.229-0.937         c-0.123-0.472-0.247-0.944-0.247-0.944c-0.473-0.007-1.038,1.586-1.384,0.275c0.012,0.291,0.022,0.728-0.28,0.726         c-0.863-0.704-1.82-1.266-2.873-1.521c-1.05-0.272-2.136-0.432-3.206-0.629c-1.063-0.241-2.146-0.336-3.194-0.674         c-1.05-0.324-2.069-0.887-3.095-1.736c0.532,0.662,0.129,0.686-0.322,0.688c0.278,0.164-0.08,0.787-0.063,1.222l-1.709-1.295         c-0.394,1.185-1.952-0.016-2.166,1.126l0.569-0.18c-0.762,1.322,0.934,3.07,0.721,4.805c0.42-0.752,0.907-0.155,1.428,0.36         c0.527,0.513,1.081,0.929,1.822-0.046c0.229,0.395-0.297,0.522-0.198,0.946c0.392-0.695,0.799-0.79,1.447-0.351l-0.105,0.171         c0.987,0.059,1.664,0.302,2.341,0.628c0.67,0.367,1.327,0.883,2.313,1.382l0.061-0.875c0.43,0.229,0.454,0.515,0.608,0.777         c0.874-1.125-1.262-0.4-0.419-1.672c0.092,0.929,0.892,1.142,1.666,1.377c0.765,0.261,1.471,0.636,1.339,1.635         c0.666,0.256,0.133-1.014,0.808-0.754l-0.006,0.573l0.413-0.589c0.41,0.273,0.389,0.983,0.237,1.414         c-0.086-0.089-0.347,0.01-0.474,0.005c0.325,0.809,1.679,0.351,1.778,0.664c0,0-0.116-0.159-0.244-0.293         c-0.129-0.135-0.257-0.27-0.257-0.27c1.006,0.109,1.938,0.693,2.925,1.119c0.489,0.223,0.986,0.427,1.502,0.568         c0.489,0.188,1,0.312,1.548,0.324l0.081-0.427c1.654,0.126,0.775,0.996,2.34,1.537l-0.104,0.05         c0.51-0.183,0.957-0.059,1.295,0.239c-0.6,0.146,0.075,1.214-0.657,1.324c1.736,0.292,0.987-0.054,2.764-0.613l-0.218,0.679         c0.667-0.256,0.905-0.503,1.669-0.118c-0.883,0.008-0.258,1.126-1.318,1.235c0.162,1.121,0.842,1.257,1.419,1.387         c0.285,0.065,0.537,0.129,0.661,0.308c0.147,0.199,0.049,0.406,0.022,1.109c0.604-0.083,0.824-0.285,0.817-0.549         c0.009-0.25-0.298-0.641-0.363-0.752c-0.255-0.333-0.665-0.562-0.368-0.561c0.068-0.351,0.422-0.5,0.8-0.495         c0.188,0.003,0.382,0.044,0.547,0.117c0.041,0.019,0.08,0.039,0.117,0.061c0.052,0.035,0.128,0.097,0.186,0.146         c0.122,0.104,0.229,0.213,0.313,0.322c0.413,0.377,0.315,1.15,0.333,2.058c0.027,0.904,0.171,1.924,1.082,2.895         c-0.173-0.202-0.292-0.124-0.464-0.324c0.333,1.006,1.745,1.105,1.872,2.555c1.321-0.119,0.897,1.303,2.201,0.642         l-1.768-1.804c1.114,0.886,3.415,0.987,3.92,3.523c-0.346-0.009-1.036-0.409-1.463-0.701         c-0.005,0.811,0.925,0.981,0.921,1.813c-1.363,0.587-1.768-2.474-3.643-2.971c-0.033,0.463,0.594,0.863,1.023,1.197         c0.396,0.356,0.579,0.634-0.26,0.747c1.1-0.097,1.396,0.511,1.678,1.209c0.264,0.716,0.606,1.462,1.65,1.933l-0.814,0.297         c0.24,0.189,0.858,0.535,1.068,1.02l-1.407-0.342c0.732,0.425,0.851,1.15,0.907,1.87c0.056,0.724,0.077,1.43,0.52,1.979         c-0.229-0.672-0.358-1.046-0.356-1.278c0.004-0.234,0.129-0.321,0.295-0.37c0.332-0.1,0.835-0.035,0.851-0.726         c0.33,0.35,0.562,0.659,0.716,0.937c0.124,0.289,0.178,0.544,0.182,0.774c0.007,0.463-0.184,0.831-0.394,1.214         c-0.21,0.384-0.438,0.781-0.508,1.301c-0.034,0.26-0.028,0.549,0.041,0.884c0.078,0.332,0.206,0.714,0.358,1.177         c-0.192-0.484-0.152-2.043,0.534-1.39c0.063,0.379,0.063,0.839-0.005,1.275c-0.057,0.435-0.156,0.837-0.318,1.116         c0.822,2.47,0.759-0.612,1.551,0.334c-0.82,1.13,0.797,1.146,1.323,2.267l-0.861,0.175c-0.102,3.089,1.926,0.507,1.679,3.37         l-1.388-1.005l0.531,1.372l-1.038-0.182c0.896,1.44,0.666,1.974,0.483,3.478c0.593-0.373,1.619,0.144,1.687,1.531         c-0.571,0.93-0.808-0.524-0.784,1.402c-0.535-0.458-1.171-0.92-0.356-1.745c-0.291-0.084-0.574-0.418-0.861-0.498         c-0.249,0.488-0.309,1.088-0.309,1.658c0.012,0.568,0.102,1.107,0.089,1.445c0.046-0.258,0.108-0.566,0.242-0.722         l1.078,2.837c-0.397,0.4-0.582,0.028-0.838-0.335c0.069,0.563,0.366,0.983,0.328,1.813c-0.675-0.305-1.413-0.359-1.571-1.504         l0.392,2.636c-0.333,0.125-1.033,1.148-1.242,0.771c-0.265,0.658-0.217,1.532-0.106,2.512         c0.066,0.963,0.193,2.045-0.401,2.846c0.097,0.135,0.154,0.36,0.11,0.772c-0.386,0.813-0.917,1.511-1.322,2.288         c-0.405,0.78-0.841,1.572-0.839,2.748l-1.652,0.487c-0.217,0.795,0.305,0.634,0.798,0.592         c0.469-0.051,1.003,0.066,0.507,1.399c-0.686,1.906-1.328,0.082-1.99,0.483c0.027,0.574,0.098,1.402-0.071,2.224         c-0.179,0.811-0.708,1.544-1.654,1.965C290.357,301.234,290.791,300.973,291.05,300.472z M276.161,314.54         c0.273-0.35,0.655-1.275,1.168-0.974C277.441,314.669,276.896,314.463,276.161,314.54z M245.064,320.771         c0.37-0.217,0.792,0.088,1.277,0.473C245.93,321.273,245.498,321.115,245.064,320.771z M213.35,244.219         c0,0.024-0.001,0.042,0.004,0.066C212.44,244.936,212.775,244.712,213.35,244.219z M214.974,242.693         c0.038-0.254-0.065-0.32-0.216-0.323c0.078,0.265-0.207,0.667-0.594,1.08C214.439,243.465,214.732,243.34,214.974,242.693z          M294.479,242.047l0.109,0.463C293.758,241.967,294.109,242.016,294.479,242.047z" style="fill:#202020;"/><path d="M248.924,320.234c0.094,0.165,0.104,0.332,0.109,0.499         C249.214,320.612,249.238,320.443,248.924,320.234z" style="fill:#202020;"/><path d="M296.274,288.952c0.015-0.018,0.02-0.037,0.032-0.055c-0.039-0.048-0.083-0.081-0.13-0.107         L296.274,288.952z" style="fill:#202020;"/><path d="M210.712,274.225c-0.146,0.384-0.319,0.598-0.493,0.74         C210.434,274.989,210.624,274.814,210.712,274.225z" style="fill:#202020;"/><path d="M222.386,233.433l-1.01,1.047c0.529-0.454,0.849-0.454,1.214-0.554         C222.438,233.783,222.033,233.717,222.386,233.433z" style="fill:#202020;"/><path d="M232.098,233.475c0.031-0.143,0.167-0.118,0.198-0.259l-0.218-0.346         C231.736,233.107,231.653,233.542,232.098,233.475z" style="fill:#202020;"/><path d="M225.194,234.974c0.527,0.529,1.054-0.178,1.741-0.861c-0.044,0.037-0.084,0.074-0.135,0.101         C226.444,233.191,225.805,234.092,225.194,234.974z" style="fill:#202020;"/><path d="M227.098,233.96c0.205-0.175,0.524-0.386,0.69-0.448c-0.106-0.178-0.103-0.205-0.226-0.08         C227.442,233.559,227.287,233.773,227.098,233.96z" style="fill:#202020;"/><path d="M216.467,240.288c0.457-0.22-0.495-0.86-0.092-0.855         C216.032,238.412,215.091,242.537,216.467,240.288z" style="fill:#202020;"/><polygon points="227.234,236.487 226.436,235.946 226.458,236.848        " style="fill:#202020;"/><path d="M221.237,240.612l1.264-0.808c-0.12-0.098-0.042-0.29,0.083-0.496         C221.891,239.897,221.023,240.442,221.237,240.612z" style="fill:#202020;"/><path d="M222.584,239.308c0.364-0.306,0.684-0.625,0.783-0.916         C223.183,238.572,222.792,238.968,222.584,239.308z" style="fill:#202020;"/><path d="M225.807,237.897l-0.461,0.108c0,0-0.875,0.553-0.855,0.577         C224.47,238.555,225.807,237.896,225.807,237.897z" style="fill:#202020;"/><path d="M211.665,253.239l-0.468,1.57c0.211,0.28,0.573-0.029,0.72-0.619         C211.888,253.749,212.041,253.154,211.665,253.239z" style="fill:#202020;"/><path d="M216.212,250.365c-0.375,0.252-0.561,0.167-0.938,0.21l0.933,0.641L216.212,250.365z" style="fill:#202020;"/><path d="M214.191,254.355c0.208,0.291-0.146,2.378,0.616,0.631         C214.593,254.713,215.025,253.213,214.191,254.355z" style="fill:#202020;"/><polygon points="207.586,276.562 207.551,276.161 205.701,276.242        " style="fill:#202020;"/><path d="M216.491,294.737c-0.333-1.713-1.208,0.126-1.38-1.501c-0.58-0.189,0.144,1.334-0.381,1.119         C215.607,295.108,215.604,295.707,216.491,294.737z" style="fill:#202020;"/><path d="M214.73,294.355c-0.14-0.122-0.299-0.246-0.492-0.369         C214.478,294.216,214.621,294.308,214.73,294.355z" style="fill:#202020;"/><polygon points="257.081,223.071 256.422,222.652 256.837,223.296        " style="fill:#202020;"/><path d="M255.787,224.384l-0.144-1.189l-0.399,1.05C255.391,224.2,255.678,224.112,255.787,224.384z" style="fill:#202020;"/><path d="M272.397,313.711l0.044,0.295c0.274,0.208,0.509,0.12,0.98-0.055L272.397,313.711z" style="fill:#202020;"/><polygon points="284.771,306.385 284.567,306.535 285.66,306.988        " style="fill:#202020;"/><path d="M291.095,296.097c-0.29,0.389-0.382,0.997-0.674,1.392         C290.799,296.492,292.319,296.648,291.095,296.097z" style="fill:#202020;"/></g></g></g></g></g></g></g><g id="Layer_1"/></svg>